<svg width="239" height="159" viewBox="0 0 239 159" fill="none" xmlns="http://www.w3.org/2000/svg">
<g id="FromSoftware-Logo.wine">
<path id="Vector" d="M61.4831 87.3836C60.5601 87.2333 58.9102 86.6501 58.1573 86.208C57.2641 85.6834 56.0688 84.4292 55.5731 83.4964C54.9905 82.3999 54.6944 81.0408 54.6969 79.4749C54.7049 74.5269 57.9423 71.5317 63.302 71.5139C65.8645 71.5053 68.1785 72.2919 69.6255 73.6632C71.2094 75.1644 71.9105 76.9281 71.9105 79.4111C71.9105 80.3565 71.8257 81.2792 71.6906 81.8015C71.0099 84.4337 69.1439 86.2859 66.3402 87.1122C65.2876 87.4224 62.6328 87.5708 61.4831 87.3836ZM64.6324 82.8787C65.6807 82.3465 66.2884 81.3386 66.409 79.9321C66.5148 78.6988 66.1918 77.5931 65.5016 76.826C63.9506 75.1021 61.7292 75.4644 60.601 77.6251C60.2899 78.2208 60.2347 78.5059 60.2341 79.5186C60.2332 80.7705 60.3681 81.1863 61.087 82.1486C61.8824 83.2135 63.3698 83.5198 64.6324 82.8787ZM96.8944 87.4502C96.8174 87.4194 96.343 87.3544 95.8402 87.3056C95.3373 87.257 94.8404 87.1641 94.7359 87.0994C94.5527 86.986 94.0348 83.9372 94.0281 82.9324L94.0251 82.4891L94.9698 82.8368C96.0843 83.2469 98.2641 83.4441 98.7576 83.1795C99.3433 82.8653 99.1484 82.4164 97.9791 81.3861C95.4844 79.188 94.7441 78.2647 94.3566 76.8679C94.163 76.1701 94.1501 75.8938 94.2809 75.2414C94.5869 73.7141 95.2389 72.8306 96.5841 72.1199C97.308 71.7375 97.3371 71.7343 99.9736 71.7406C101.64 71.7447 102.851 71.8112 103.218 71.9188C103.799 72.0892 103.804 72.0961 103.898 72.8942C103.95 73.3362 104.073 74.2975 104.172 75.0303C104.271 75.7632 104.327 76.4051 104.296 76.4569C104.265 76.5086 103.878 76.4231 103.436 76.2669C102.298 75.8645 100.584 75.7606 100.119 76.0658C99.4541 76.5024 99.7255 77.0243 101.21 78.1637C102.6 79.2306 103.912 80.6326 104.275 81.4399C104.473 81.8796 104.581 82.4056 104.585 82.955C104.601 84.8099 103.82 86.123 102.213 86.9413L101.233 87.4403L99.1338 87.4732C97.9791 87.4914 96.9714 87.481 96.8944 87.4502ZM110.751 87.3184C109.784 87.0624 108.694 86.6062 107.999 86.1664C106.567 85.261 105.253 83.3099 104.938 81.6225C104.749 80.6119 104.747 78.5231 104.934 77.5689C105.27 75.8611 106.451 74.0959 107.939 73.0789C108.68 72.5726 110.189 71.9748 111.207 71.7842C112.498 71.5427 115.758 71.7093 116.755 72.0678C119.51 73.0583 121.204 74.8779 121.823 77.511C122.126 78.8025 122.023 81.3603 121.622 82.4924C120.821 84.7491 119.317 86.1675 116.699 87.133C115.715 87.4959 111.874 87.6157 110.751 87.3184ZM114.5 83.116C115.561 82.6691 116.393 81.3633 116.522 79.9452C116.774 77.1533 114.261 75.0392 112.078 76.2081C111.384 76.58 110.633 77.5513 110.406 78.3711C109.869 80.309 110.772 82.5126 112.365 83.1496C112.87 83.3517 113.981 83.3343 114.5 83.116ZM122.803 87.1513C122.756 87.0293 122.718 83.602 122.718 79.5352C122.718 73.9711 122.76 72.0993 122.886 71.9727C123.127 71.7309 133.926 71.7309 134.167 71.9727C134.344 72.1497 134.414 75.3633 134.25 75.7903C134.176 75.983 133.772 76.0121 131.164 76.0121H128.162L128.204 76.7485L128.247 77.4849L130.696 77.555L133.145 77.6251L133.184 79.6206L133.223 81.616L130.735 81.6543L128.247 81.6927L128.209 84.5329L128.171 87.3731H125.529C123.25 87.3731 122.876 87.3428 122.803 87.1513ZM139.545 87.2078C139.416 87.0788 139.374 85.6787 139.374 81.5281V76.0196L137.309 75.9808L135.245 75.942L135.206 73.947C135.168 71.9674 135.17 71.9513 135.489 71.8709C135.666 71.8263 139.022 71.8092 142.946 71.8327C149.167 71.8701 150.158 71.9052 150.684 72.1067C152.191 72.6851 153.108 73.7877 153.373 75.342C153.672 77.0919 153.945 78.7665 154.087 79.729C154.351 81.5176 154.359 81.5041 154.848 78.3264C155.284 75.4902 155.454 74.374 155.616 73.2771C155.711 72.6305 155.869 72.0852 155.988 71.9902C156.226 71.7999 160.889 71.7333 161.171 71.9162C161.265 71.9776 161.441 72.5298 161.56 73.1434C161.68 73.7569 161.837 74.5114 161.908 74.8199C161.98 75.1285 162.271 76.6117 162.554 78.116C162.838 79.6203 163.111 80.8981 163.16 80.9555C163.21 81.0129 163.362 80.2871 163.499 79.3425C163.636 78.398 163.803 77.3095 163.871 76.9238C163.938 76.5381 164.132 75.3073 164.302 74.1888C164.471 73.0702 164.658 72.0919 164.717 72.0148C164.799 71.9073 168.125 71.8458 169.098 71.9337C169.165 71.9397 169.178 72.0866 169.129 72.2602C168.989 72.7484 167.983 77.5018 166.999 82.3238C166.456 84.9828 165.818 86.1062 164.407 86.8845C163.72 87.264 163.521 87.3024 162 87.3508C161.055 87.3808 160.285 87.3458 160.209 87.2692C160.07 87.1302 159.864 86.1686 159.105 82.1134C158.859 80.802 158.632 79.6396 158.599 79.5302C158.474 79.11 158.305 79.6443 158.071 81.2017C157.633 84.1095 157.123 87.1607 157.057 87.268C156.956 87.4339 151.582 87.3965 151.479 87.2292C151.43 87.15 151.083 85.5563 150.709 83.6876C149.69 78.606 149.202 76.3154 149.103 76.1556C149.05 76.0686 148.221 76.0121 146.995 76.0121H144.976L144.939 81.6576L144.902 87.303L142.309 87.3411C140.41 87.3689 139.67 87.3333 139.545 87.2078ZM166.043 87.2421C165.998 87.17 166.159 86.6808 166.4 86.1551C167.216 84.3723 170.264 77.2171 171.288 74.6797C171.849 73.2911 172.405 72.0761 172.523 71.9797C172.681 71.8517 173.542 71.8043 175.712 71.8043C178.981 71.8043 178.986 71.8055 179.248 72.6857C179.321 72.9338 179.515 73.484 179.679 73.9082C179.842 74.3325 180.126 75.0899 180.309 75.5914C180.69 76.6324 181.989 79.9915 183.048 82.6745C183.444 83.6773 183.801 84.6083 183.841 84.7433C184.097 85.5919 184.163 84.316 184.163 78.4817C184.163 72.6775 184.187 71.9654 184.384 71.8895C184.506 71.8427 186.569 71.8055 188.968 71.8068C194.496 71.8099 195.29 71.9494 196.617 73.1514C197.33 73.7968 197.7 74.5384 197.886 75.6953C198.177 77.5064 197.735 78.8374 196.46 79.9942C196.009 80.4031 195.64 80.8322 195.64 80.9478C195.64 81.1552 196.351 83.2753 196.877 84.6381C197.087 85.182 197.297 85.726 197.506 86.27C197.704 86.7819 197.826 87.2395 197.779 87.2869C197.731 87.3343 196.474 87.3732 194.984 87.3732C192.308 87.3732 192.273 87.3693 192.139 87.0576C191.936 86.588 189.901 79.0834 189.901 78.8061C189.901 78.6075 190.076 78.5586 190.942 78.5148C192.254 78.4484 192.701 78.1159 192.701 77.2063C192.701 76.1512 192.088 75.8144 190.321 75.8987L189.411 75.942L189.375 81.6576L189.338 87.3731H184.309C180.461 87.3731 179.254 87.3323 179.167 87.1992C179.105 87.1035 178.799 86.2987 178.488 85.4109L177.921 83.7965L175.603 83.7582C173.857 83.7293 173.249 83.7639 173.14 83.8984C173.06 83.9967 172.792 84.6767 172.544 85.4095C171.815 87.5622 172.165 87.3731 168.912 87.3731C167.334 87.3731 166.089 87.3162 166.043 87.2421ZM176.745 79.7073C176.745 79.5726 175.757 76.5337 175.665 76.3837C175.621 76.3135 175.349 76.9428 175.06 77.7821C174.771 78.6215 174.489 79.4187 174.435 79.5537C174.345 79.7762 174.448 79.7991 175.54 79.7991C176.203 79.7991 176.745 79.7578 176.745 79.7073ZM198.812 87.2796C198.761 87.2282 198.719 83.7635 198.719 79.5804C198.719 72.7743 198.742 71.9657 198.941 71.8895C199.062 71.8427 201.758 71.8043 204.931 71.8043C209.232 71.8043 210.743 71.8472 210.868 71.9726C211.059 72.1638 211.106 75.544 210.922 75.8342C210.842 75.961 209.942 76.0168 207.53 76.0445L204.248 76.0823V77.4849L207.012 77.5229L209.776 77.5609V81.6166L207.012 81.6546L204.248 81.6927V83.0952L207.53 83.1329C209.942 83.1607 210.842 83.2165 210.922 83.3433C211.051 83.546 211.076 86.8263 210.951 87.1513C210.876 87.3488 210.21 87.3731 204.886 87.3731C201.597 87.3731 198.864 87.3311 198.812 87.2796ZM28.0547 87.1394C28.0034 87.088 27.9614 83.6165 27.9614 79.4251V71.8043H33.6906C39.0252 71.8043 39.4248 71.8213 39.4942 72.0498C39.5499 72.2337 39.5184 74.6261 39.4452 75.7639C39.4416 75.8202 38.1002 75.8833 36.4643 75.9042L33.4901 75.942L33.4478 76.6784L33.4055 77.4147H35.8472C37.9446 77.4147 38.3009 77.446 38.3739 77.6366C38.4206 77.7586 38.4588 78.6062 38.4588 79.5201C38.4588 81.763 38.601 81.6537 35.7438 81.6074L33.4901 81.5708L33.4522 84.4019L33.4143 87.2329H30.7812C29.333 87.2329 28.106 87.1908 28.0547 87.1394ZM40.4183 79.5186V71.8043L45.3521 71.8058C51.2148 71.8076 51.6295 71.8811 52.9293 73.1481C54.2662 74.4512 54.5997 77.1038 53.6361 78.769C53.4506 79.0896 52.9479 79.6604 52.5189 80.0374L51.739 80.723L52.2918 82.3299C52.9838 84.3414 53.3973 85.4544 53.733 86.2083C54.211 87.2818 54.3317 87.2329 51.2051 87.2329C48.6699 87.2329 48.4084 87.2105 48.3405 86.9874C48.2994 86.8524 47.9543 85.6059 47.5737 84.2173C47.193 82.8287 46.6871 81.0035 46.4495 80.1612C46.2118 79.319 46.0423 78.6049 46.0728 78.5743C46.1033 78.5438 46.5358 78.504 47.0338 78.486C48.4769 78.4337 49.1375 77.8093 48.8752 76.7453C48.6889 75.9898 48.0839 75.7148 46.7168 75.764L45.667 75.8017L45.6305 81.5173L45.5939 87.2329H40.4183V79.5186ZM72.8436 87.1394C72.7924 87.088 72.7504 83.6165 72.7504 79.4251V71.8043H79.8759L79.9647 72.3303C80.0136 72.6196 80.1387 73.3297 80.2428 73.9082C80.3468 74.4868 80.533 75.5283 80.6565 76.2225C80.8535 77.3304 80.9755 77.9658 81.2289 79.2031C81.3072 79.5854 81.5681 79.6244 81.5681 79.2537C81.5681 79.108 81.7244 78.1771 81.9155 77.1849C82.1065 76.1927 82.4113 74.592 82.5928 73.6277L82.9228 71.8745H90.0361V87.1628H85.5572L85.4872 82.5342L85.4172 77.9057L84.8773 80.5706C84.5804 82.0363 84.1768 84.056 83.9806 85.0589C83.7844 86.0617 83.5617 86.9627 83.4858 87.061C83.382 87.1954 82.8068 87.2302 81.1718 87.2013L78.996 87.1628L78.8291 86.4615C78.7373 86.0758 78.3665 84.2138 78.0051 82.3238C77.0363 77.2567 77.0105 77.2552 77.0692 82.2681C77.0967 84.6139 77.0798 86.6906 77.0316 86.883L76.944 87.2329H74.9404C73.8385 87.2329 72.895 87.1908 72.8436 87.1394Z" fill="white"/>
</g>
</svg>
