<svg width="240" height="159" viewBox="0 0 240 159" fill="none" xmlns="http://www.w3.org/2000/svg">
<g id="Mihoyo">
<path id="path969-5-3" fill-rule="evenodd" clip-rule="evenodd" d="M215.18 67.0598C212.407 67.0598 211.048 68.2767 210.235 68.8851C209.422 69.4935 208.744 70.1019 207.999 70.1019C206.102 70.1019 204.748 68.8175 200.954 68.8175C191.975 68.8175 184.695 77.1408 184.695 87.4081C184.695 97.6753 191.975 105.999 200.954 105.999C209.933 105.999 217.212 97.6753 217.212 87.4081C217.212 83.6632 216.223 80.0057 214.375 76.9146C214.064 76.1185 213.961 75.3073 213.962 73.7186C213.963 71.5216 215.023 69.9039 216.196 69.0879C217.369 68.2719 218.364 68.0739 219.583 67.9387C218.296 67.3303 216.806 67.0598 215.18 67.0598ZM200.954 78.079C205.439 78.0709 209.083 82.2557 209.083 87.4081C209.083 92.5604 205.444 96.7371 200.954 96.7371C196.464 96.7371 192.825 92.5604 192.825 87.4081C192.825 82.2671 196.469 78.087 200.954 78.079ZM128.841 65.9782C128.57 65.9782 128.4 67.2627 128.4 69.0203C128.4 70.778 128.739 72.468 129.078 72.468C129.416 72.468 129.416 72.2652 131.042 70.8456C132.668 69.4259 132.939 69.4259 132.939 69.0203C132.939 68.6147 132.329 68.2767 130.907 67.2627C129.484 66.2486 129.112 65.9782 128.841 65.9782ZM157.361 65.9782C157.09 65.9782 156.717 66.2486 155.295 67.2627C153.872 68.2767 153.262 68.6147 153.262 69.0203C153.262 69.4259 153.533 69.4259 155.159 70.8456C156.785 72.2652 156.785 72.468 157.124 72.468C157.462 72.468 157.801 70.778 157.801 69.0203C157.801 67.2627 157.632 65.9782 157.361 65.9782ZM143.101 68.8175C134.123 68.8175 126.842 77.1446 126.842 87.4081C126.842 97.6753 134.121 105.999 143.101 105.999C152.08 105.999 159.359 97.6753 159.359 87.4081C159.359 77.1446 152.078 68.8175 143.101 68.8175ZM143.101 78.079C147.585 78.079 151.23 82.2671 151.23 87.4081C151.23 92.5604 147.59 96.7371 143.101 96.7371C138.611 96.7371 134.971 92.5604 134.971 87.4081C134.971 82.2671 138.616 78.079 143.101 78.079ZM160.172 56.0407C158.614 56.0407 157.091 58.0012 158.485 59.9322L168.166 77.403V101.03C168.166 103.745 170.357 105.931 173.078 105.931C175.799 105.931 177.99 103.745 177.99 101.03V77.403L187.671 59.9322C189.065 58.0012 187.541 56.0407 185.984 56.0407H180.955C180.278 56.0407 179.465 56.4889 179.14 57.0816L173.748 66.9246C173.612 67.1742 173.373 67.2627 173.111 67.2627C172.849 67.2627 172.592 67.1737 172.454 66.9246L167.013 57.0816C166.686 56.4901 165.878 56.0407 165.201 56.0407H160.172ZM95.5785 56.0407C92.8575 56.0407 90.667 58.2266 90.667 60.9419V101.03C90.667 103.745 92.8575 105.931 95.5785 105.931C98.2994 105.931 100.49 103.745 100.49 101.03V87.8813C100.49 86.6454 101.487 85.6504 102.725 85.6504H108.009C109.248 85.6504 110.245 86.6454 110.245 87.8813V101.03C110.245 103.745 112.435 105.931 115.156 105.931C117.877 105.931 120.068 103.745 120.068 101.03V60.9419C120.068 58.2266 117.877 56.0407 115.156 56.0407C112.435 56.0407 110.245 58.2266 110.245 60.9419V73.0764C110.245 74.3123 109.248 75.3073 108.009 75.3073H102.725C101.487 75.3073 100.49 74.3123 100.49 73.0764V60.9419C100.49 58.2266 98.2994 56.0407 95.5785 56.0407ZM77.9989 53.0662C74.9965 53.0662 72.5794 55.4783 72.5794 58.4744C72.5794 61.4705 74.9965 63.8826 77.9989 63.8826C81.0014 63.8826 83.4185 61.4705 83.4185 58.4744C83.4185 55.4783 81.0014 53.0662 77.9989 53.0662ZM32.3058 68.6823C25.7193 68.6823 20.4167 73.9737 20.4167 80.5465V101.03C20.4167 103.745 22.6072 105.931 25.3282 105.931C28.0491 105.931 30.2396 103.745 30.2396 101.03V82.4055C30.2396 80.2708 31.9618 78.5522 34.101 78.5522C36.2402 78.5522 37.9624 80.2708 37.9624 82.4055V101.03C37.9624 103.745 40.1521 105.931 42.8723 105.931C45.5926 105.931 47.7823 103.745 47.7823 101.03V82.4055C47.7823 80.2708 49.5045 78.5522 51.6437 78.5522C53.7829 78.5522 55.5045 80.2708 55.5051 82.4055L55.508 92.4106C55.5102 99.9758 61.6112 106.066 69.1923 106.066C76.7733 106.066 82.8765 99.9758 82.8765 92.4106V75.3411C82.8765 72.6259 80.686 70.4399 77.9651 70.4399C75.2441 70.4399 73.0537 72.6259 73.0537 75.3411V92.2078C73.0537 94.3425 71.3315 96.0611 69.1923 96.0611C67.053 96.0611 65.3314 94.3425 65.3309 92.2078L65.328 80.5465C65.3264 73.9737 60.0254 68.6823 53.4389 68.6823C49.7142 68.6823 46.3575 70.3575 44.1829 73.0338C43.9099 73.3698 43.5145 73.6848 42.8724 73.6848C42.2302 73.6848 41.8348 73.3698 41.5618 73.0338C39.3872 70.3575 36.0305 68.6823 32.3058 68.6823Z" fill="white"/>
</g>
</svg>
