<svg width="208" height="139" viewBox="0 0 208 139" fill="none" xmlns="http://www.w3.org/2000/svg">
<g id="Turn 10">
<g id="Group">
<path id="Vector" d="M101.285 20.9393C98.5406 21.4422 95.8255 22.8474 93.804 24.8442C91.93 26.6783 90.9118 28.3054 89.9822 30.9826C89.7166 31.7073 84.8177 45.3596 79.0925 61.3046C73.3525 77.2495 68.5421 90.8278 68.3946 91.4786C68.0257 93.0613 67.8781 96.5964 68.1142 98.2234C69.0438 104.569 73.382 108.725 80.7156 110.323C82.1469 110.633 82.1912 110.633 114.905 110.633C132.921 110.633 147.662 110.678 147.662 110.722C147.662 110.811 145.7 116.224 145.169 117.644C145.021 117.999 145.036 118.044 145.228 117.97C145.375 117.911 162.994 105.249 163.569 104.791C163.628 104.732 154.716 91.7005 154.612 91.7005C154.568 91.7005 153.919 93.2979 153.196 95.2504L151.868 98.8003H117.634H83.4012L82.6634 98.4453C81.8076 98.0459 80.7747 96.981 80.3615 96.0935C80.1844 95.6941 80.0811 95.1321 80.0811 94.496C80.0811 93.579 80.6566 91.9224 90.543 64.4699C96.2977 48.4954 101.079 35.2424 101.167 35.0206C101.433 34.3106 102.333 33.4823 103.277 33.0386L104.207 32.6096L112.426 32.5652L120.63 32.5209L120.777 32.1215C120.851 31.8996 121.589 29.9028 122.415 27.6841C123.242 25.4654 123.906 23.6165 123.906 23.587C123.906 23.5574 123.079 23.4982 122.076 23.4834L120.246 23.439L120.748 22.1374C121.028 21.4127 121.25 20.7914 121.25 20.7618C121.25 20.7323 117.015 20.7027 111.85 20.7175C104.443 20.7323 102.185 20.7766 101.285 20.9393Z" fill="white"/>
<path id="Vector_2" d="M122.519 21.1765C122.4 21.4427 122.268 21.8125 122.223 21.99L122.12 22.3302H124.127C126.001 22.3302 126.148 22.345 126.045 22.5816C125.735 23.41 122.43 32.4326 122.43 32.477C122.43 32.5066 123.374 32.5361 124.54 32.5361H126.665L128.48 27.5367C129.468 24.8003 130.339 22.4929 130.398 22.4337C130.457 22.3746 131.269 22.345 132.198 22.3598L133.91 22.4042L132.597 25.954C131.151 29.8145 130.929 30.8204 131.342 31.6191C131.8 32.4918 132.021 32.5361 136.418 32.5361H140.388L141.303 32.0776C142.424 31.5155 143.191 30.5985 143.737 29.1785C143.944 28.6313 144.741 26.5013 145.508 24.4749L146.895 20.7771L144.814 20.7327C143.339 20.7032 142.704 20.7475 142.631 20.8659C142.572 20.9694 141.804 22.981 140.934 25.3328C139.237 29.9477 138.927 30.4802 137.953 30.7612C137.26 30.9535 136.433 30.9535 135.946 30.7612C135.164 30.4654 135.12 30.6133 138.351 21.916L138.794 20.7032H130.752H122.71L122.519 21.1765Z" fill="white"/>
<path id="Vector_3" d="M159.851 25.4659C158.877 28.0988 157.903 30.7612 157.682 31.3824L157.254 32.5361H159.379H161.504L162.463 29.9033C162.994 28.4685 163.85 26.1759 164.337 24.8003L165.252 22.3302H166.771C168.439 22.3302 168.675 22.4337 168.645 23.1881C168.631 23.41 167.908 25.5843 167.007 28.0248L165.399 32.4622L167.465 32.5066C168.616 32.5213 169.575 32.5213 169.604 32.4918C169.634 32.4474 170.416 30.3914 171.346 27.8917C173.116 23.1733 173.234 22.6408 172.836 21.6646C172.438 20.718 172.305 20.7032 166.668 20.7032H161.592L159.851 25.4659Z" fill="white"/>
<path id="Vector_4" d="M148.031 21.1021C147.707 21.9452 143.826 32.5653 143.826 32.6244C143.826 32.654 144.741 32.6836 145.877 32.6836H147.913L148.917 30.0212L149.92 27.3588H151.263C153.535 27.3588 153.653 27.6398 152.606 30.4649C152.237 31.4559 151.942 32.3138 151.942 32.4026C151.942 32.4913 152.738 32.5209 154.022 32.5061L156.117 32.4617L156.855 30.5389C157.652 28.4533 157.8 27.4031 157.386 26.989C157.165 26.7671 157.209 26.6932 157.873 26.0571C159.57 24.4597 160.087 22.3297 159.024 21.2648L158.611 20.8506H153.373C148.518 20.8506 148.135 20.8654 148.031 21.1021ZM154.952 22.5664C155.557 23.1728 154.804 24.9478 153.683 25.5246C153.417 25.6578 152.797 25.7317 151.897 25.7317H150.496L150.982 24.4301C151.248 23.7201 151.543 22.9658 151.632 22.7291C151.779 22.3297 151.794 22.3297 153.255 22.3297C154.391 22.3297 154.775 22.3889 154.952 22.5664Z" fill="white"/>
<path id="Vector_5" d="M109.533 37.9347C109.017 38.9405 107.6 40.2865 106.39 40.9374C105.328 41.4994 103.498 42.0023 102.51 42.0023H101.816L100.4 45.8776L98.9978 49.7677L102.141 49.8417L105.284 49.9156L97.4189 71.6587C93.0955 83.61 89.5246 93.5497 89.4656 93.7272L89.3623 94.0674H95.3089H101.27L111.216 66.5114C116.675 51.3652 121.308 38.556 121.5 38.0383L121.84 37.1212H115.893H109.961L109.533 37.9347Z" fill="white"/>
<path id="Vector_6" d="M132.317 37.3575C129.734 38.0379 127.55 39.7685 126.429 42.0167C125.617 43.6585 111.895 81.8347 111.599 83.299C111.304 84.7633 111.29 87.2335 111.585 88.3724C112.278 91.0052 114.3 92.795 117.561 93.6676C118.815 93.993 118.859 93.993 130.841 93.993H142.867L143.9 93.6528C146.231 92.8689 148.282 91.1383 149.33 89.0232C149.92 87.8547 163.54 50.1963 164.145 48.0663C164.587 46.4985 164.75 44.0431 164.484 42.7119C163.982 40.1382 162.3 38.4964 159.157 37.535L158.065 37.1948L145.597 37.1652C135.076 37.1356 132.995 37.1652 132.317 37.3575ZM150.437 48.4805C151.012 48.8946 151.499 49.7969 151.499 50.4329C151.499 50.995 140.698 81.2726 140.314 81.7903C140.152 81.9974 139.812 82.2932 139.532 82.4559C139.06 82.7369 138.721 82.7517 132.833 82.7961C128.76 82.8257 126.458 82.7961 126.104 82.6926C125.071 82.3819 124.363 81.5388 124.319 80.5626C124.304 80.0893 134.899 50.0336 135.371 49.2348C135.622 48.8207 136.212 48.4065 136.861 48.2142C137.083 48.1403 140.122 48.0959 143.605 48.1107L149.95 48.1403L150.437 48.4805Z" fill="white"/>
</g>
</g>
</svg>
