<svg width="208" height="139" viewBox="0 0 208 139" fill="none" xmlns="http://www.w3.org/2000/svg">
<g id="Sumo Digital">
<g id="Group 2015">
<path id="path8" d="M137.701 46.7847H130.638C129.103 46.7847 127.875 48.0155 127.875 49.5541V61.5034C127.824 62.5291 128.387 63.4522 129.257 63.9651L135.961 67.8114C136.166 67.9653 136.268 68.2217 136.268 68.4781L136.319 77.094C136.319 77.453 136.012 77.7607 135.603 77.7607H132.737C132.378 77.7607 132.071 77.5043 132.071 77.1453V77.094V69.9654H127.824V79.1966C127.824 80.7352 129.052 81.966 130.587 81.966H137.65C139.185 81.966 140.413 80.7352 140.413 79.1966V67.196C140.413 66.1703 139.901 65.2472 139.031 64.7343L132.327 60.888C132.123 60.7854 131.969 60.529 131.969 60.2726V51.708C131.969 51.349 132.225 50.99 132.634 50.99H135.5C135.91 50.99 136.217 51.2977 136.217 51.708V58.734H140.413V49.5541C140.464 48.0155 139.236 46.7847 137.701 46.7847ZM157.353 46.7847H153.156V77.094C153.156 77.453 152.849 77.7607 152.44 77.7607C152.44 77.7607 152.44 77.7607 152.389 77.7607H149.523C149.165 77.7607 148.857 77.5043 148.857 77.1965V77.1453V46.7847H144.61V79.1966C144.61 80.7352 145.838 81.966 147.373 81.966H157.199L157.353 46.7847ZM182.685 81.966V49.5541C182.685 48.0155 181.406 46.7334 179.871 46.7334H161.6V81.966H165.848V50.9387H169.328C169.738 50.9387 170.045 51.2465 170.045 51.6567V81.966H174.241V50.9387H177.721C178.131 50.9387 178.438 51.2465 178.438 51.6567V81.966H182.685ZM196.81 46.7847H189.748C188.213 46.7847 186.984 48.0155 186.984 49.5541V79.1966C186.984 80.7352 188.213 81.966 189.748 81.966H196.81C198.346 81.966 199.574 80.7352 199.574 79.1966V49.5541C199.574 48.0155 198.346 46.7847 196.81 46.7847ZM195.428 77.094C195.428 77.453 195.121 77.7607 194.712 77.7607C194.712 77.7607 194.712 77.7607 194.661 77.7607H191.795C191.437 77.7607 191.181 77.5043 191.13 77.1453V77.094V51.708C191.078 51.349 191.385 50.99 191.744 50.99C191.744 50.99 191.744 50.99 191.795 50.99H194.661C195.07 50.99 195.377 51.2977 195.377 51.708L195.428 77.094ZM134.426 93.2487C133.709 92.9922 132.583 92.8384 130.997 92.8384H128.847V103.608H132.174C133.504 103.608 134.477 103.403 135.244 103.044C136.012 102.634 136.626 101.967 137.036 101.198C137.496 100.326 137.752 99.3516 137.701 98.3259C137.752 97.1976 137.445 96.0693 136.831 95.0949C136.268 94.2231 135.398 93.5564 134.426 93.2487ZM135.91 100.89C135.449 101.557 134.835 102.07 134.067 102.326C133.095 102.531 132.071 102.634 131.048 102.582H129.82V93.9154H130.536C132.02 93.9154 133.146 94.0179 133.76 94.2231C134.579 94.4795 135.347 94.9924 135.807 95.7103C136.319 96.4796 136.575 97.454 136.524 98.3771C136.575 99.3003 136.37 100.121 135.91 100.89ZM142.767 103.608H143.842V92.8384H142.767V103.608ZM155.613 99.5054H158.99C158.888 100.429 158.376 101.3 157.66 101.916C156.892 102.531 155.92 102.89 154.896 102.839C154.026 102.839 153.207 102.634 152.44 102.223C151.723 101.813 151.109 101.249 150.7 100.531C150.29 99.8131 150.086 99.0438 150.035 98.2233C150.035 96.5822 150.956 95.0949 152.389 94.3257C153.105 93.9154 153.924 93.7102 154.743 93.7102C155.459 93.7102 156.125 93.8641 156.79 94.1718C157.506 94.4795 158.172 94.9411 158.735 95.5052L159.553 94.6846C158.888 94.0179 158.12 93.5051 157.25 93.0948C156.432 92.7871 155.613 92.582 154.743 92.582C153.719 92.582 152.696 92.7871 151.775 93.3C150.905 93.8128 150.188 94.4795 149.727 95.3513C149.216 96.2232 148.96 97.1976 149.011 98.2233C149.011 99.5567 149.472 100.839 150.29 101.865C151.416 103.249 152.952 103.916 154.896 103.916C156.483 103.916 157.762 103.403 158.735 102.429C159.707 101.454 160.219 100.121 160.219 98.4284H155.664L155.613 99.5054ZM165.183 103.659H166.206V92.8897H165.183V103.659ZM170.812 92.8384V93.9154H173.166V103.659H174.241V93.9154H176.595V92.8384H170.812ZM184.067 92.8384L179.154 103.608H180.331L181.969 100.07H186.524L188.11 103.608H189.236L184.323 92.8384H184.067ZM182.43 99.0438L184.221 95.1462L186.012 99.0438H182.43ZM195.07 102.582V92.8897H193.996V103.659H199.113V102.582H195.07Z" fill="white"/>
<path id="path10" d="M107.097 61.7594C107.251 62.2723 107.506 62.7851 107.711 63.298C107.66 62.9902 107.558 62.6825 107.455 62.4261C107.404 62.1697 107.302 61.9646 107.097 61.7594ZM106.227 59.0413C105.92 59.2465 106.534 60.067 106.688 60.2209C106.534 59.8619 106.381 59.4516 106.227 59.0413ZM100.751 51.8102C100.649 51.7076 100.546 51.6563 100.444 51.605C99.6252 50.8358 100.495 52.0666 100.751 51.8102ZM117.384 71.5548C117.332 70.8368 117.23 70.1701 117.128 69.4521C117.077 67.4007 116.77 65.3493 116.309 63.298C115.848 61.3491 115.285 59.5029 114.518 57.6566C114.415 57.0412 114.108 57.7592 114.057 57.1438C113.75 56.2207 113.341 55.3488 112.88 54.5283C112.317 53.5539 111.805 52.5794 111.294 51.7589C110.679 50.7845 109.963 49.9126 109.298 48.9382C108.581 48.0664 107.916 47.092 107.097 46.2714C105.511 44.4252 103.617 42.8353 101.57 41.5019C101.365 41.2968 101.161 41.1429 100.905 40.9891C100.649 40.8352 100.393 40.6814 100.137 40.5275C99.6764 40.2711 99.2158 40.0147 98.8064 39.707C98.4993 39.707 97.9876 39.2454 97.3223 39.0403C97.1176 38.8351 96.5034 38.6813 96.3499 38.3223C100.649 40.1172 104.538 42.8866 107.558 46.4253C107.762 46.1688 107.097 45.7073 106.892 45.4509C106.636 45.0919 106.329 44.7842 106.022 44.4764C105.152 43.6559 104.231 42.8353 103.31 42.1174C102.849 41.7584 102.389 41.4506 101.928 41.1429C101.468 40.8352 101.007 40.5275 100.546 40.2198C97.2199 38.1684 93.2281 36.7325 89.3898 35.758C89.1851 35.7068 88.9293 35.7068 88.7245 35.6555L88.0081 35.5529L86.6263 35.2965C85.7051 35.1426 84.8351 35.1426 84.3745 34.8862C85.5004 34.7323 86.6775 34.7836 87.8034 34.9375L88.6734 35.0401C88.9804 35.0913 89.2875 35.1426 89.5946 35.1939C90.2087 35.2965 90.9252 35.399 91.6416 35.5016C90.874 35.2965 90.1063 35.0913 89.2875 34.8349C88.8781 34.7323 88.4687 34.6298 88.0592 34.5272C87.6498 34.4246 87.1892 34.3734 86.7798 34.2708C85.7563 34.0656 84.6304 34.1682 83.6068 34.1169C82.4298 34.0144 81.3039 34.0144 80.1268 34.0144C78.9498 33.9631 77.8239 34.0656 76.698 34.0656L75.8791 34.1169H75.6233H75.4185H75.3162L74.958 34.1682C74.4462 34.2195 73.9856 34.3221 73.4738 34.4246C73.2179 34.4759 73.0132 34.5272 72.7573 34.5785C72.5015 34.6298 72.1944 34.7323 71.9385 34.7836C71.3756 34.9375 70.8638 35.0913 70.352 35.2965C69.7379 35.3478 69.175 35.4503 68.5608 35.6042C67.9467 35.7068 67.3838 35.8606 66.8208 36.0658C66.1043 36.3735 65.0808 36.6812 64.1084 37.1427C63.3408 37.5017 62.5731 37.912 61.8055 38.3736C61.6519 38.4761 61.5496 38.3736 61.4472 38.4761C60.3725 39.0916 59.2978 39.8095 58.3254 40.6301L57.609 41.1942C57.3531 41.3994 57.0972 41.5532 56.8925 41.8096C56.4319 42.2199 55.9713 42.6302 55.4595 43.0405C54.9478 43.4508 54.4872 43.861 54.0778 44.3226C53.566 44.7842 53.1054 45.297 52.6448 45.8611C52.1842 46.4253 51.7748 46.9381 51.3654 47.5023C50.956 48.0151 50.6489 48.5792 50.393 49.0408C50.0348 49.3998 49.6765 49.7588 49.3695 50.1691C49.2159 50.3742 49.1136 50.7332 48.9601 50.887C48.8577 50.887 48.8065 50.9383 48.7042 50.9383C48.6018 50.9896 48.5506 51.1435 48.4483 51.1948C47.7318 52.4256 47.1177 53.759 46.4012 55.0924C46.0942 55.7591 46.1453 56.4258 45.7871 57.0925L45.3265 58.1695L44.9171 59.2465C44.6612 59.9644 43.9959 60.785 43.7912 61.503C43.5865 62.221 43.74 62.8877 43.5353 63.6057L43.3818 64.1698L43.3306 64.4262V64.4775L43.2794 64.6826L43.2282 64.7852C43.1771 65.0929 43.1259 65.4519 43.0235 65.7596C42.9724 65.9135 42.9724 66.0673 42.9212 66.2725C42.9212 66.4776 42.87 66.6828 42.87 66.8879C42.8188 67.2982 42.7677 67.7084 42.7677 68.0674C42.6141 68.5803 42.5118 69.0931 42.4606 69.606C42.4094 70.2727 42.1024 71.1958 42.1024 71.9651C42.1024 72.7344 42.1024 73.5036 42.1024 73.9652C42.1024 74.119 42.2047 74.1703 42.2047 74.2729C42.4094 76.7859 43.1771 79.0937 43.9959 81.6579C44.0983 81.9143 44.1494 82.222 44.2518 82.4785C43.8424 81.863 43.433 81.2476 43.0747 80.6322C42.9212 80.3758 42.8188 80.1194 42.6653 79.9142C42.5118 79.6578 42.3071 79.0424 42 78.2731C42.1535 79.0937 42.3582 79.8629 42.6141 80.6322C42.7677 80.9912 42.9724 81.4015 43.1259 81.7605C43.5353 82.6836 45.2753 85.8633 45.7871 86.6838L45.5312 85.6068C46.043 86.7351 46.6571 87.8121 47.3224 88.8378C48.4483 90.5815 49.7789 92.2226 51.2118 93.7098C51.4677 94.0175 51.9283 94.4278 52.2866 94.8381C52.6448 95.2484 53.2589 95.8638 53.4125 96.0689C53.5148 96.1715 53.6172 96.1715 53.7195 96.2228C54.0266 96.4792 53.8219 96.7356 54.1289 96.992C54.436 97.2485 55.2548 97.4536 55.5619 97.6587C56.1248 98.1203 56.739 98.5306 57.3531 98.9409C57.916 99.3512 58.0696 99.6589 58.6837 100.018C59.2978 100.377 60.0143 100.685 60.6796 100.992C61.0378 101.095 61.3449 101.197 61.7031 101.3C61.9078 101.454 62.1125 101.556 62.3684 101.659C62.5731 101.71 62.9825 101.864 63.2384 101.915C64.7226 102.377 66.2579 102.685 67.7932 102.89L68.3561 102.941C68.5097 102.941 68.3049 102.787 68.3049 102.736C68.3049 102.633 68.8679 102.992 68.9191 103.044C69.8914 103.146 70.915 103.198 71.9385 103.249C72.2967 103.249 71.5291 102.633 71.8873 102.633C72.1944 102.633 73.6273 103.198 73.9344 103.146C74.5485 103.095 75.2138 103.044 75.828 102.941C76.0327 102.89 76.2886 102.941 76.5444 102.941C76.9027 102.89 77.2609 102.736 77.568 102.685C78.1309 102.582 78.745 102.48 79.308 102.428L79.7174 102.377H79.8198L80.0756 102.326L80.2292 102.274C80.3315 102.223 80.4339 102.223 80.5362 102.172C80.6898 102.121 80.7921 102.069 80.9457 101.967C81.0992 101.915 81.2527 101.864 81.4574 101.864C81.6621 101.813 81.7645 101.71 81.9692 101.659C82.0204 101.659 82.1227 101.608 82.1739 101.556C84.0163 101.197 85.8075 100.685 87.5475 100.018C87.9057 99.864 87.8545 99.7101 88.1616 99.5563C94.6611 96.4279 98.397 92.5303 101.007 88.1711C101.058 88.0685 101.519 88.0685 101.519 87.9659C105.306 79.5552 103.105 70.8368 97.3223 68.6316C97.1176 68.5803 96.3499 68.0674 96.1452 68.0162C94.4564 67.5033 91.9487 67.2469 89.3387 66.8366C89.2875 66.8366 89.2363 66.6828 89.1851 66.6828C87.3428 66.4263 85.398 66.1186 83.6068 65.8109C83.5045 65.8109 83.351 65.7083 83.2486 65.6571C78.438 64.7852 75.0091 63.6057 77.6703 61.1953C79.3592 59.6055 81.2015 58.2208 83.2486 57.1438C84.6816 56.5797 85.8586 56.1181 86.8822 55.7591L87.1381 55.6565C87.7522 55.4514 88.3663 55.2462 88.8781 55.0411C90.004 54.6821 91.1299 54.4257 92.3069 54.2718C92.4093 54.2718 93.7911 54.2718 93.8934 54.118C93.9958 53.9641 93.2281 52.8359 92.8187 52.6307C90.9763 51.8615 90.874 51.605 88.9804 50.9896C87.7522 50.5793 86.4728 50.3742 85.1422 50.4255C82.481 50.4255 78.8474 51.246 73.9344 53.7077C73.7297 53.8103 73.525 53.9128 73.2691 54.0667C73.1668 54.118 73.1156 54.4257 73.0644 54.477C72.9109 54.5795 72.7062 54.3744 72.5015 54.477L72.2456 54.6308C72.1432 54.6821 72.1432 54.7334 72.092 54.7847C71.9897 54.836 71.9385 54.836 71.8873 54.836C70.7614 55.4514 69.6867 56.1181 68.6632 56.8874C68.612 56.9386 68.612 57.0925 68.5097 57.1438C67.7932 57.6566 67.1279 58.2208 66.4626 58.7849C66.4114 58.8362 66.309 58.8362 66.2579 58.8875C65.2855 59.8106 65.6437 59.708 65.1832 60.5286C65.132 60.5799 65.1832 60.6824 65.1832 60.7337C64.8249 61.3491 64.569 62.0158 64.4667 62.7338C64.4667 62.7851 64.4155 62.6825 64.4155 62.7338C64.3643 62.9902 64.3643 63.1954 64.3131 63.4518C64.1084 64.4262 63.9037 66.4263 64.4667 68.1187C64.569 68.3751 64.3131 66.8366 64.4667 65.8109C64.4667 65.7596 64.4667 65.7596 64.4667 65.7083C64.6202 66.5289 64.8761 67.2982 65.1832 68.0674C65.439 68.6829 66.3602 69.4008 67.0255 69.8624C67.7932 70.4265 68.6632 70.8881 69.5844 71.1958C69.7379 71.2471 69.5844 71.042 69.175 70.683C69.5844 70.7855 69.9938 70.8881 70.4544 70.9394C70.5567 70.9394 70.7103 70.9394 70.8126 70.9907C70.915 71.042 71.0685 70.9907 71.1709 70.9907C71.2732 70.9907 71.3244 71.0932 71.3756 71.0932C72.0409 71.1958 72.7062 71.7599 73.3715 71.8112C73.6274 71.8625 73.9344 71.8625 74.1903 71.9138C74.3438 71.9138 75.7768 72.3754 75.8791 72.3754C79.4615 72.6831 81.4574 73.6575 83.6068 74.2216C85.7563 74.7857 85.398 74.8883 86.7286 75.1447C86.831 75.196 86.9334 75.2473 87.0357 75.2986C87.1892 75.4012 87.4451 75.4012 87.5987 75.5037C89.8504 76.5807 89.0316 80.6835 88.9804 80.7348C88.8781 80.9912 88.7246 81.1963 88.571 81.4528C88.5198 81.5553 88.6222 82.0682 88.571 82.1707C88.5198 82.2733 88.3663 82.1707 88.3151 82.222C87.4451 83.4529 87.1892 84.2734 85.6028 85.453C85.398 85.6068 85.5004 85.6581 85.2957 85.7607C85.1933 85.812 84.7327 85.9145 84.6304 85.9658C84.4769 86.0684 84.3745 86.2735 84.221 86.3761C83.9139 86.6325 83.5557 86.8889 83.1974 87.0941C83.0439 87.1454 82.4298 87.5044 82.2763 87.6069C82.1227 87.6582 82.0204 87.9659 81.7133 87.8634C81.5086 87.7608 81.3039 88.0685 81.048 88.1711C78.1309 89.5045 75.0091 90.2225 71.785 90.2737H71.7338C71.1197 90.684 69.6356 90.9917 69.2261 90.8892C68.8679 90.7866 65.0296 91.8123 69.175 90.6327C69.5332 90.5302 69.9426 90.3763 70.2497 90.2225C69.9426 90.2225 69.5844 90.1712 69.2773 90.1199C68.9191 90.1712 68.5608 90.1712 68.2026 90.0686C67.8444 89.9147 64.1596 90.4789 67.8444 89.8635C63.8526 89.0942 59.7584 86.889 56.1248 82.3759C55.306 80.8373 54.6919 79.2475 54.2825 77.6064C53.7707 75.7602 53.7707 74.0678 53.6172 72.4779C53.6172 72.2215 53.3101 71.8625 53.3101 71.6061C53.3101 71.3497 53.4636 70.7343 53.4636 70.4778C53.4125 69.606 53.3613 69.606 53.3613 69.247C53.3613 68.9906 53.4125 68.8367 53.4125 68.5803V68.2726C53.4125 68.2213 53.4125 68.17 53.4125 68.1187L53.7195 68.2726L53.8731 67.1443L54.0266 66.8879L54.1289 66.4263L54.3848 64.8878C54.4872 64.3237 54.6919 63.7595 54.8454 63.1954C55.1525 62.0671 55.5619 60.9901 56.0225 59.8619C56.1248 59.4516 56.4319 59.0926 56.3807 58.6823C56.8413 57.7079 57.3531 56.8361 57.8649 55.9642C57.916 55.8617 57.8137 55.7591 57.8649 55.7078C57.916 55.6052 58.1207 55.554 58.1719 55.5027C58.8372 54.4257 59.5537 53.4 60.3213 52.4256C61.6519 50.7845 63.2384 49.3998 65.0808 48.3228L65.8996 47.8612L66.309 47.6048C66.4114 47.5535 66.5649 47.3997 66.3602 47.451C65.6437 47.8612 64.8249 48.4254 64.3131 48.4767C64.7226 48.0151 65.2343 47.6561 65.7973 47.3997C65.8996 47.1945 65.6437 46.8868 65.9508 46.6817C66.1555 46.5278 66.4114 46.4253 66.6161 46.3227C66.8208 46.2201 67.0767 46.1176 67.2814 45.9637L67.9467 45.6047C68.1514 45.5021 68.4073 45.3996 68.612 45.297C69.0726 45.0919 69.5332 44.8354 70.045 44.6303C70.5567 44.4252 71.1197 44.2713 71.7338 44.1175C71.9897 44.0149 72.1944 43.861 72.4503 43.7585L73.1668 43.4508C73.4226 43.3482 73.6785 43.2456 73.9344 43.143L74.9068 42.8866C75.3674 42.8353 75.8791 42.7841 76.3397 42.6815L76.4933 42.6302H76.3909H76.4421H76.5444L76.8515 42.5789C77.0562 42.5276 77.2609 42.5276 77.4656 42.4763C78.2333 42.3225 78.9498 42.2199 79.7174 42.2199C80.178 42.3225 79.9221 41.9122 80.2803 41.9635C80.4851 41.8609 80.7921 41.8609 80.9968 41.8096C81.5086 41.8096 82.0204 41.7584 82.5321 41.7584C83.0439 41.7584 83.5045 41.7584 83.9651 41.8096C84.4257 41.8096 84.8863 41.8096 85.3469 41.8609L86.6775 42.0148C87.5475 42.1174 88.4687 42.2199 89.3387 42.4251L90.004 42.5276C90.2087 42.5789 90.4646 42.6302 90.6693 42.6815L92.051 43.0405C92.5116 43.1943 92.9722 43.3995 93.4328 43.6559C93.8934 43.9123 94.3028 44.1687 94.7123 44.4764C95.1217 44.7329 95.5823 44.938 96.0429 45.1432L97.3223 45.8611C97.527 45.9637 97.7317 46.0663 97.9876 46.2201L98.6017 46.6304L99.2158 47.0407C99.4205 47.1433 99.6252 47.2971 99.8299 47.451L101.058 48.3228L102.286 49.2972C102.491 49.4511 102.696 49.6562 102.849 49.8613L103.412 50.4255C103.771 50.8358 104.129 51.246 104.436 51.6563C104.641 51.9127 104.845 52.1179 104.999 52.4256C105.152 52.6307 105.204 52.8359 105.152 53.0923C104.487 52.5794 103.822 52.0153 103.208 51.3999C102.491 50.8358 101.877 50.3229 101.109 50.1691C101.365 50.5281 101.672 50.887 102.031 51.1948C102.44 51.5025 102.747 51.8615 103.105 52.2204C103.464 52.5282 103.822 52.8871 104.129 53.2461C104.436 53.6051 104.743 53.9641 105.101 54.3231C106.022 55.8104 106.944 57.1438 107.609 58.4772C107.814 58.7849 107.967 59.1439 108.121 59.5029C108.274 59.8619 108.428 60.1696 108.581 60.5286C108.837 61.1953 109.042 61.862 109.144 62.58C109.298 62.8877 109.451 63.1954 109.656 63.5031C109.809 63.8621 109.963 64.2724 110.014 64.6826C110.168 64.9904 110.475 64.2724 110.628 64.8365C110.679 65.2468 110.731 65.6571 110.935 66.016C111.089 66.8879 111.191 67.6572 111.345 68.4777C111.447 69.2983 111.549 70.1188 111.549 70.9394C111.601 71.7087 111.754 73.3498 111.754 74.1703C111.754 74.9909 111.703 75.7602 111.601 76.5807L111.549 77.1961L111.447 77.8115C111.396 78.1705 111.345 78.6321 111.242 78.9398L111.14 79.5039C111.089 79.7091 111.038 79.9142 110.987 80.0681L110.628 81.2476C109.554 84.3247 108.069 87.1967 106.176 89.8635C105.715 90.2225 106.483 90.1199 106.022 90.4789C105.511 91.1969 105.101 92.0687 104.436 92.8893C103.208 94.4278 101.57 95.8638 99.8299 97.4023C97.0152 99.8127 93.8934 101.813 90.5157 103.454C90.8228 103.351 90.8228 103.505 90.5669 103.659C89.5434 104.223 88.9293 103.556 87.701 103.967C87.3428 104.223 86.8822 104.377 86.4216 104.48C86.1145 104.633 85.8586 104.992 85.398 104.839C85.2957 105.146 84.8351 105.3 84.3745 105.403C83.8627 105.454 83.4533 105.454 82.9927 105.454C82.9927 105.916 84.0163 105.71 84.5792 105.813C84.8863 105.608 85.091 105.762 85.398 105.813C85.7051 105.864 86.2681 105.659 86.2681 105.967C86.0634 106.069 85.398 105.967 85.5004 106.172C86.0634 106.069 85.7563 106.326 85.3469 106.275C85.2957 105.916 85.2445 106.275 84.9886 106.326C85.0398 106.172 84.3233 106.377 84.3233 106.48C84.6304 106.48 84.9886 106.48 85.2957 106.428L86.2169 106.326C86.831 106.223 87.3939 106.121 88.0081 105.967C89.1851 105.71 90.4646 106.172 91.5393 105.71C92.6652 105.249 93.7911 104.736 94.8658 104.172C95.9917 103.556 97.0664 102.89 98.1411 102.172C98.2435 102.274 98.6017 101.915 98.704 102.121C98.6017 102.223 98.4482 102.274 98.4993 102.377C98.6529 102.274 98.7552 102.326 98.9599 102.172C100.802 101.249 102.747 99.8127 104.18 98.787C105.306 97.6587 106.636 96.633 107.762 95.4022C108.121 94.9919 108.376 94.5817 108.735 94.1201C109.093 93.7098 109.554 93.2483 109.912 92.7867C112.215 89.8635 114.159 86.6325 115.234 83.658C115.337 83.5554 115.439 83.4529 115.439 83.3503C115.439 83.299 115.49 83.1964 115.49 83.1452L115.541 83.0426L115.592 82.94V82.8887V82.8375C115.644 82.5297 115.746 82.2733 115.951 82.2733C115.337 85.0427 113.597 88.2736 111.908 90.9917C111.242 92.0174 110.526 92.9405 110.219 93.7611C110.833 92.7867 111.242 92.5816 111.959 91.402C113.238 89.5558 114.364 87.6069 115.234 85.5043C115.439 84.9914 115.644 84.5299 115.848 84.017L116.155 83.1452L116.36 82.4785L116.565 81.7605L116.77 80.8886L116.974 80.0168L117.077 79.1962C117.332 77.7603 117.486 76.273 117.486 74.7857C117.588 73.9139 117.435 72.3241 117.384 71.5548ZM52.3377 47.1433C52.3889 47.1945 52.2866 47.3484 52.1842 47.451L51.8772 47.81C51.6724 47.7074 52.2354 47.3484 52.3377 47.1433ZM52.2354 48.2202C51.7748 48.6818 51.3654 49.0921 51.0583 49.0408C51.7236 48.0151 52.4913 47.5023 53.2078 46.7843C53.003 47.3484 52.6448 47.81 52.2354 48.2202ZM60.4237 98.5306C60.5261 98.787 60.9866 98.9921 61.4472 99.2486C62.6755 99.864 64.7226 100.326 64.8249 100.428C65.1832 100.838 65.6949 100.633 65.7973 100.736C66.1555 101.197 65.9508 101.044 65.9508 101.044C63.2384 100.992 59.7584 98.428 59.7584 98.428C59.6049 98.069 60.4237 98.4793 60.4237 98.5306ZM58.8372 97.5562C58.8884 97.6588 58.786 97.8126 58.2231 97.2998C57.3019 96.4792 56.4831 96.2228 56.3807 95.8638C56.3295 95.8638 58.786 97.4536 58.8372 97.5562ZM96.5546 49.0921C96.657 49.1434 96.8105 49.2972 96.9129 49.1946C96.7081 49.1434 96.4011 48.7331 96.2987 48.8869L96.5546 49.0921ZM114.467 57.2464C114.364 56.9899 114.262 56.7335 114.108 56.8874L114.211 57.1951C114.313 57.0925 114.415 57.1951 114.467 57.2464ZM109.809 49.0408C110.372 49.8614 110.987 50.6819 111.447 51.5025C112.419 53.1436 113.289 54.7847 114.108 56.5284C113.136 53.9641 111.805 51.5537 110.117 49.3485C109.707 48.6818 109.246 48.0664 108.786 47.5023C108.684 47.3997 108.53 47.1433 108.377 46.9894C108.223 46.8355 108.018 46.6817 107.865 46.7843C108.223 47.1433 108.53 47.5023 108.837 47.8612C109.144 48.2202 109.502 48.5792 109.809 49.0408ZM60.7308 85.5043C61.2425 85.8633 61.2937 85.6581 60.9866 85.6068C60.4237 85.1453 60.4749 85.3504 60.7308 85.5043ZM95.8381 48.5279C95.2752 48.2715 95.2752 48.4767 95.5823 48.4767C96.1452 48.8357 96.094 48.6305 95.8381 48.5279ZM61.6519 86.2735C61.7543 86.3761 61.959 86.4274 62.1125 86.3761C61.8567 86.1197 61.4984 85.9658 61.1914 85.8633C61.2937 86.0171 61.4984 86.171 61.6519 86.2735ZM56.5854 81.2989C56.6366 81.4015 56.739 81.5041 56.8413 81.5553C57.4554 82.4272 56.8925 81.1451 56.5854 81.2989ZM90.7716 46.5278C91.0275 46.4253 91.8463 46.7843 91.4881 46.5791C91.1299 46.374 90.7204 46.2714 90.311 46.3227C90.5157 46.374 90.6693 46.4253 90.7716 46.5278ZM83.7604 45.0919L84.2722 45.1432C84.4257 45.1432 84.6304 45.1944 84.6816 45.0919C84.3745 45.1432 83.8116 44.938 83.7604 45.0919ZM94.3028 47.9125C94.6099 48.0664 94.9681 48.2202 95.3264 48.2202C95.1217 48.1177 94.9681 48.0151 94.7634 47.9125C94.6099 47.8612 94.4564 47.8612 94.3028 47.9125ZM92.9211 47.2971C93.2793 47.451 93.6375 47.6561 93.8422 47.5023C93.5352 47.3997 93.0746 47.0407 92.9211 47.2971ZM59.8096 84.6324C59.9631 84.735 60.219 85.1966 60.3725 85.0427L60.1166 84.7863C59.9631 84.735 59.8608 84.5811 59.8096 84.6324Z" fill="#D11138"/>
</g>
</g>
</svg>
