<svg width="245" height="139" viewBox="0 0 245 139" fill="none" xmlns="http://www.w3.org/2000/svg">
<g id="Cryptic">
<path id="Vector" d="M56.0873 81.4784C56.0873 81.7372 55.9175 82.0807 55.5803 82.5018C52.619 86.0571 48.6851 87.8359 43.776 87.8359C38.7567 87.8359 34.6855 86.1083 31.563 82.6464C28.5209 79.3022 27 75.0788 27 69.9798C27 65.0431 28.4881 60.8497 31.4678 57.4062C34.5723 53.8033 38.5238 52 43.3197 52C48.5329 52 52.619 53.6166 55.5803 56.8465C55.9027 57.2046 56.0635 57.5205 56.0635 57.7974C56.0635 58.1078 55.503 59.2516 54.3845 61.2322C53.266 63.2158 52.562 64.3266 52.2732 64.5704C52.1444 64.6996 51.9836 64.7662 51.7897 64.7662C51.7093 64.7662 51.3096 64.4412 50.5849 63.7909C49.7138 63.011 48.8611 62.4032 48.0259 61.9636C46.7525 61.3137 45.4346 60.9883 44.0655 60.9883C41.7005 60.9883 39.8093 61.8825 38.3958 63.6676C37.0895 65.3259 36.4394 67.373 36.4394 69.8085C36.4394 72.2766 37.0895 74.3473 38.3958 76.021C39.8093 77.8392 41.7001 78.7483 44.0655 78.7483C45.467 78.7483 46.7943 78.4411 48.0501 77.8243C48.8697 77.4178 49.7049 76.849 50.5611 76.1175C51.2679 75.5003 51.6617 75.1934 51.7421 75.1934C51.9032 75.1934 52.064 75.2809 52.2252 75.4613C52.4816 75.7532 53.1825 76.7678 54.3248 78.5045C55.4999 80.3078 56.0873 81.298 56.0873 81.4784ZM77.4929 64.9383C77.4929 62.9578 76.849 61.5851 75.5635 60.8205C74.5644 60.2517 73.0103 59.9685 70.9049 59.9685C70.1622 59.9685 69.4882 60.0166 68.8767 60.1131C68.6351 60.1793 68.4891 60.3329 68.4415 60.5767C68.2838 61.8217 68.203 63.0754 68.1995 64.3305C68.1995 65.5315 68.2475 66.8798 68.3459 68.3731C68.3935 68.65 68.5457 68.8214 68.8025 68.8848C68.9009 68.8848 69.0109 68.9029 69.142 68.9328C70.1236 69.0802 71.1523 69.1526 72.2322 69.1526C75.7395 69.1526 77.4929 67.75 77.4929 64.9383ZM58.9784 53.4877C58.9631 53.1297 59.1153 52.8949 59.4373 52.7807C59.5181 52.7649 59.5895 52.7563 59.6551 52.7563C61.4893 52.7232 65.513 52.7232 71.7248 52.7563H74.1378C77.7911 52.7563 80.7766 53.5933 83.094 55.267C85.7006 57.1333 87.0037 59.8393 87.0037 63.3793C87.0037 65.7332 86.6669 67.6176 85.9898 69.0325C85.2979 70.4442 84.0603 71.8079 82.2737 73.1231C82.0949 73.2558 81.9576 73.3673 81.8623 73.4662C81.7492 73.6442 81.7339 73.8396 81.8143 74.0503C82.1039 74.6345 83.0464 76.6 84.6387 79.947C85.7482 82.2351 86.7473 84.4382 87.6301 86.5487C87.7284 86.759 87.6718 86.9126 87.463 87.0119C87.3975 87.0422 87.3409 87.0604 87.2933 87.0604H77.9999C77.6779 87.0422 77.4602 86.8886 77.3497 86.5967C76.986 85.5627 76.6152 84.5312 76.2375 83.5023C75.6111 81.8794 74.6358 79.4924 73.3175 76.3412C73.0283 75.7059 72.3602 75.3565 71.3135 75.2935C71.5398 75.3092 71.4832 75.3266 71.1464 75.3415H68.8528C68.6113 75.3746 68.4891 75.787 68.4891 76.5847C68.4891 77.7045 68.5875 79.3451 68.7783 81.5064C68.8915 82.692 68.9871 84.2999 69.0675 86.3285C69.0675 86.6869 68.9067 86.9126 68.5875 87.0119C68.5181 87.0403 68.4445 87.0566 68.3697 87.06H59.6551C59.3183 87.06 59.1005 86.8973 59.0049 86.5723C58.9872 86.4923 58.9783 86.4105 58.9784 86.3285C59.2855 76.5996 59.4467 71.1753 59.4615 70.0558C59.4615 65.9136 59.3003 60.39 58.9784 53.4877ZM118.093 57.7273C118.126 59.4486 118.141 60.7551 118.141 61.6493C118.141 62.3477 118.013 62.9555 117.756 63.4762C115.648 67.6995 112.767 72.1336 109.113 76.7781C108.695 77.3622 108.445 77.8979 108.364 78.3856C108.445 80.8868 108.535 83.5693 108.63 86.4258C108.63 86.7027 108.502 86.8803 108.245 86.9615C108.19 86.9772 108.133 86.9855 108.075 86.9859H98.9997C98.7105 86.9859 98.5345 86.8504 98.4689 86.5735C98.4537 86.5259 98.4457 86.4762 98.4451 86.4262C98.5583 83.4219 98.6449 80.7096 98.7105 78.2895C98.6777 77.8018 98.4841 77.2842 98.1317 76.7304C96.1843 73.9519 93.3986 69.6895 89.7781 63.9402C89.4081 63.3048 89.2173 62.7873 89.1997 62.3808C89.1997 61.3724 89.1517 59.9126 89.0565 57.9951C89.0058 56.9083 88.9667 55.3489 88.934 53.3172C88.934 52.9773 89.0862 52.7575 89.3933 52.6582C89.4741 52.6279 89.5545 52.6098 89.6353 52.6098H98.2273C98.5641 52.6098 98.7909 52.7724 98.9045 53.0974C98.9193 53.1789 98.9279 53.2542 98.9279 53.3172C98.9048 54.5927 98.873 55.868 98.8327 57.1431C98.7491 58.8172 98.7105 60.0658 98.7105 60.8938C98.7105 61.3814 99.4262 62.6005 100.858 64.548C101.985 66.0743 102.91 67.2603 103.634 68.106C104.294 67.3084 105.17 66.1314 106.265 64.5724C107.649 62.6246 108.341 61.4476 108.341 61.0415C108.341 60.2135 108.284 58.9795 108.174 57.3357C108.108 56.4447 108.051 55.1051 108.004 53.3172C107.989 52.9773 108.141 52.7575 108.463 52.6582C108.544 52.6279 108.624 52.6098 108.705 52.6098H117.369C117.708 52.6098 117.923 52.7815 118.022 53.1218C118.036 53.188 118.045 53.2542 118.045 53.3176C118.06 55.3162 118.078 56.7851 118.093 57.7273ZM140.424 66.2303C140.424 62.4465 138.599 60.5535 134.945 60.5535C132.372 60.5535 131.021 60.7008 130.889 60.9927C130.779 61.2369 130.722 63.1118 130.722 66.6214C130.722 67.1394 130.746 67.8859 130.794 68.8615C130.824 69.8368 130.842 70.5742 130.842 71.08C130.842 71.4049 132.291 71.5676 135.187 71.5676C138.68 71.5676 140.424 69.7884 140.424 66.2303M150.057 65.8392C150.057 69.7703 149.034 72.9553 146.991 75.3904C144.802 77.9732 141.784 79.2644 137.94 79.2644C137.296 79.2644 136.324 79.2285 135.029 79.156C133.734 79.0812 132.765 79.045 132.122 79.045C131.429 79.045 131.083 79.3459 131.083 79.9478C131.083 80.6942 131.155 81.8081 131.301 83.2833C131.382 84.0325 131.444 85.0231 131.495 86.2572C131.51 86.5971 131.358 86.826 131.035 86.9406C130.966 86.969 130.893 86.9853 130.818 86.9887H122.178C121.709 86.9887 121.477 86.7539 121.477 86.2812C121.477 84.463 121.51 81.7569 121.572 78.1689C121.62 74.5474 121.644 71.8323 121.644 70.0322C121.644 64.9301 121.429 59.5719 120.994 53.9522L120.946 53.344C120.928 53.0009 121.074 52.7661 121.381 52.6365C121.477 52.6184 121.566 52.6034 121.644 52.5885H132.557C134.728 52.5704 136.324 52.5704 137.334 52.5885C140.892 52.7181 143.94 54.0333 146.484 56.5349C148.864 58.907 150.057 62.0073 150.057 65.8392ZM176.582 53.2672C176.776 57.6197 176.872 59.9197 176.872 60.1604C176.839 60.4704 176.663 60.633 176.341 60.648H169.123C168.995 64.4168 168.929 67.5113 168.929 69.9314C168.929 71.0693 169.09 76.5658 169.412 86.4238C169.427 86.7011 169.299 86.8788 169.027 86.9599C168.981 86.9766 168.931 86.9848 168.881 86.9839H159.806C159.517 86.9839 159.337 86.8484 159.275 86.5715C159.26 86.5239 159.252 86.4742 159.251 86.4242C159.573 76.5508 159.734 71.0512 159.734 69.9318C159.734 67.4963 159.678 64.4018 159.564 60.6484H151.792C151.55 60.6326 151.422 60.5519 151.405 60.4042C151.405 60.275 151.783 57.873 152.541 53.1951C152.588 52.852 152.783 52.6594 153.119 52.6082C153.149 52.5932 153.181 52.585 153.215 52.5841H175.905C176.227 52.5841 176.445 52.7464 176.558 53.0718C176.573 53.1376 176.582 53.2041 176.582 53.2672ZM189.33 69.8561C189.33 70.9941 189.491 76.4905 189.813 86.3486C189.828 86.6259 189.7 86.8035 189.425 86.8847C189.363 86.9028 189.306 86.9087 189.258 86.9087H180.18C179.908 86.9087 179.73 86.7736 179.649 86.4963V86.349C179.971 76.4909 180.132 70.9941 180.132 69.8565C180.132 65.6513 179.971 60.0615 179.649 53.0958C179.634 52.8039 179.762 52.6172 180.037 52.5361C180.084 52.5361 180.132 52.527 180.18 52.5085H189.282C189.553 52.527 189.724 52.6653 189.789 52.9241C189.804 52.9903 189.813 53.0446 189.813 53.0958C189.491 60.0461 189.33 65.6332 189.33 69.8561ZM222.133 81.4784C222.133 81.7372 221.963 82.0807 221.625 82.5018C218.664 86.0571 214.731 87.8359 209.821 87.8359C204.802 87.8359 200.731 86.1083 197.608 82.6464C194.566 79.3022 193.045 75.0788 193.045 69.9798C193.045 65.0431 194.534 60.8497 197.513 57.4062C200.618 53.8033 204.569 52 209.365 52C214.578 52 218.664 53.6166 221.626 56.8465C221.948 57.2046 222.109 57.5205 222.109 57.7974C222.109 58.1078 221.548 59.2516 220.433 61.2322C219.312 63.2158 218.607 64.3266 218.318 64.5704C218.19 64.6996 218.029 64.7662 217.835 64.7662C217.755 64.7662 217.352 64.4412 216.63 63.7909C215.759 63.011 214.906 62.4032 214.071 61.9636C212.798 61.3137 211.48 60.9883 210.111 60.9883C207.746 60.9883 205.855 61.8825 204.438 63.6676C203.135 65.3259 202.484 67.373 202.484 69.8085C202.484 72.2766 203.135 74.3473 204.438 76.021C205.855 77.8392 207.746 78.7483 210.111 78.7483C211.512 78.7483 212.84 78.4411 214.095 77.8243C214.915 77.4178 215.75 76.849 216.603 76.1175C217.313 75.5003 217.707 75.1934 217.788 75.1934C217.948 75.1934 218.109 75.2809 218.271 75.4613C218.527 75.7532 219.228 76.7678 220.37 78.5045C221.545 80.3078 222.133 81.298 222.133 81.4784Z" fill="white"/>
</g>
</svg>
