<svg width="20" height="20" viewBox="0 0 20 20" fill="none" xmlns="http://www.w3.org/2000/svg">
<path d="M4.05208 13.1669H15.1354C15.9662 13.1669 16.7759 12.9055 17.4499 12.4197C18.1239 11.934 18.6279 11.2485 18.8906 10.4603C19.1533 9.67216 19.1614 8.82133 18.9137 8.02833C18.666 7.23534 18.175 6.54038 17.5104 6.04191C17.043 5.6883 16.5017 5.44476 15.9271 5.32941C15.6668 5.27486 15.4014 5.24832 15.1354 5.25024V3.66691C15.1354 2.82706 14.8018 2.0216 14.2079 1.42774C13.6141 0.833874 12.8086 0.500244 11.9688 0.500244H7.21875C6.3789 0.500244 5.57344 0.833874 4.97958 1.42774C4.38571 2.0216 4.05208 2.82706 4.05208 3.66691V5.25024C3.78613 5.24832 3.52073 5.27486 3.26042 5.32941C2.68575 5.44476 2.14453 5.6883 1.67708 6.04191C1.01246 6.54038 0.521514 7.23534 0.273801 8.02833C0.0260874 8.82133 0.0341615 9.67216 0.296879 10.4603C0.559596 11.2485 1.06364 11.934 1.73761 12.4197C2.41157 12.9055 3.2213 13.1669 4.05208 13.1669ZM5.63542 3.66691C5.63542 3.24698 5.80223 2.84426 6.09916 2.54733C6.3961 2.25039 6.79882 2.08358 7.21875 2.08358H11.9688C12.3887 2.08358 12.7914 2.25039 13.0883 2.54733C13.3853 2.84426 13.5521 3.24698 13.5521 3.66691V5.25024H5.63542V3.66691Z" fill="white"/>
<path d="M4.05208 14.75C3.31432 14.7491 2.58417 14.6009 1.90445 14.314C1.22473 14.0272 0.60913 13.6075 0.09375 13.0796V15.5417C0.09375 16.5915 0.510787 17.5983 1.25312 18.3406C1.99545 19.083 3.00227 19.5 4.05208 19.5H15.1354C16.1852 19.5 17.192 19.083 17.9344 18.3406C18.6767 17.5983 19.0938 16.5915 19.0938 15.5417V13.0796C18.5784 13.6075 17.9628 14.0272 17.2831 14.314C16.6033 14.6009 15.8732 14.7491 15.1354 14.75H4.05208Z" fill="white"/>
</svg>
