<svg width="13" height="12" viewBox="0 0 13 12" fill="none" xmlns="http://www.w3.org/2000/svg">
<path fill-rule="evenodd" clip-rule="evenodd" d="M2.59375 5.01718C2.59583 5.04743 2.59557 5.05513 2.60073 5.08508C2.61235 5.15243 2.63788 5.21721 2.67538 5.27436C2.69433 5.30327 2.71638 5.32849 2.73991 5.35369L5.74003 8.35382C5.76221 8.37452 5.76726 8.3803 5.79149 8.39867C5.81869 8.4193 5.84801 8.43713 5.87887 8.4518C6.01365 8.5159 6.17358 8.5159 6.30836 8.4518C6.33921 8.43713 6.36854 8.4193 6.39574 8.39867C6.41994 8.3803 6.42501 8.37452 6.44717 8.35382L9.44729 5.35369C9.46799 5.33152 9.47379 5.32644 9.49215 5.30224C9.54037 5.23869 9.57292 5.16369 9.5865 5.08508C9.59615 5.02895 9.59615 4.97128 9.5865 4.91515C9.57875 4.87027 9.56485 4.8265 9.5453 4.78537C9.47102 4.62916 9.31694 4.52041 9.14488 4.50271C9.07688 4.49573 9.00762 4.50286 8.94247 4.52353C8.88819 4.54076 8.83697 4.56728 8.79162 4.60169C8.76739 4.62006 8.76234 4.62584 8.74016 4.64654L6.0936 7.2931L3.44704 4.64654L3.42209 4.62324C3.39858 4.60411 3.39311 4.59866 3.36771 4.58201C3.32011 4.55078 3.26718 4.52778 3.21188 4.51431C3.16762 4.50353 3.12192 4.49883 3.07642 4.50038C2.90354 4.50628 2.74241 4.60429 2.65763 4.75504C2.62973 4.80467 2.6104 4.85905 2.60073 4.91515C2.59557 4.9451 2.59583 4.9528 2.59375 4.98305C2.59375 4.99443 2.59375 5.0058 2.59375 5.01718Z" fill="white"/>
</svg>
