<svg width="21" height="21" viewBox="0 0 21 21" fill="none" xmlns="http://www.w3.org/2000/svg">
<g id="dash-circle" clip-path="url(#clip0_5501_9512)">
<path id="Vector" d="M10.7578 20.5C13.41 20.5 15.9535 19.4464 17.8289 17.5711C19.7042 15.6957 20.7578 13.1522 20.7578 10.5C20.7578 7.84783 19.7042 5.3043 17.8289 3.42893C15.9535 1.55357 13.41 0.5 10.7578 0.5C8.10565 0.5 5.56211 1.55357 3.68674 3.42893C1.81138 5.3043 0.757813 7.84783 0.757812 10.5C0.757813 13.1522 1.81138 15.6957 3.68674 17.5711C5.56211 19.4464 8.10565 20.5 10.7578 20.5Z" fill="#252833"/>
<path id="Vector_2" d="M10.7578 19.25C8.43717 19.25 6.21157 18.3281 4.57063 16.6872C2.92968 15.0462 2.00781 12.8206 2.00781 10.5C2.00781 8.17936 2.92968 5.95376 4.57063 4.31282C6.21157 2.67187 8.43717 1.75 10.7578 1.75C13.0785 1.75 15.3041 2.67187 16.945 4.31282C18.5859 5.95376 19.5078 8.17936 19.5078 10.5C19.5078 12.8206 18.5859 15.0462 16.945 16.6872C15.3041 18.3281 13.0785 19.25 10.7578 19.25ZM10.7578 20.5C13.41 20.5 15.9535 19.4464 17.8289 17.5711C19.7042 15.6957 20.7578 13.1522 20.7578 10.5C20.7578 7.84784 19.7042 5.3043 17.8289 3.42893C15.9535 1.55357 13.41 0.5 10.7578 0.5C8.10565 0.5 5.56211 1.55357 3.68674 3.42893C1.81138 5.3043 0.757813 7.84784 0.757812 10.5C0.757813 13.1522 1.81138 15.6957 3.68674 17.5711C5.56211 19.4464 8.10565 20.5 10.7578 20.5Z" fill="white"/>
<path id="Vector_3" d="M5.75781 10.5C5.75781 10.3342 5.82366 10.1753 5.94087 10.0581C6.05808 9.94085 6.21705 9.875 6.38281 9.875H15.1328C15.2986 9.875 15.4575 9.94085 15.5748 10.0581C15.692 10.1753 15.7578 10.3342 15.7578 10.5C15.7578 10.6658 15.692 10.8247 15.5748 10.9419C15.4575 11.0592 15.2986 11.125 15.1328 11.125H6.38281C6.21705 11.125 6.05808 11.0592 5.94087 10.9419C5.82366 10.8247 5.75781 10.6658 5.75781 10.5Z" fill="white"/>
</g>
<defs>
<clipPath id="clip0_5501_9512">
<rect width="20" height="20" fill="white" transform="translate(0.757812 0.5)"/>
</clipPath>
</defs>
</svg>
