<svg width="24" height="24" viewBox="0 0 24 24" fill="none" xmlns="http://www.w3.org/2000/svg">
<g id="Icon">
<path id="Shape" fill-rule="evenodd" clip-rule="evenodd" d="M5 10.0344C5.00415 10.0949 5.00365 10.1103 5.01395 10.1702C5.0372 10.3049 5.08825 10.4344 5.16326 10.5487C5.20116 10.6065 5.24526 10.657 5.29231 10.7074L11.2926 16.7076C11.3369 16.749 11.347 16.7606 11.3955 16.7973C11.4499 16.8386 11.5085 16.8743 11.5702 16.9036C11.8398 17.0318 12.1597 17.0318 12.4292 16.9036C12.4909 16.8743 12.5496 16.8386 12.604 16.7973C12.6524 16.7606 12.6625 16.749 12.7068 16.7076L18.7071 10.7074C18.7485 10.663 18.7601 10.6529 18.7968 10.6045C18.8932 10.4774 18.9583 10.3274 18.9855 10.1702C19.0048 10.0579 19.0048 9.94255 18.9855 9.8303C18.97 9.74054 18.9422 9.65299 18.9031 9.57074C18.7545 9.25832 18.4464 9.04081 18.1023 9.00541C17.9663 8.99146 17.8277 9.00571 17.6974 9.04707C17.5889 9.08152 17.4864 9.13457 17.3957 9.20337C17.3473 9.24012 17.3372 9.25167 17.2928 9.29308L11.9997 14.5862L6.70657 9.29308L6.65667 9.24647C6.60967 9.20822 6.59872 9.19732 6.54792 9.16402C6.45271 9.10157 6.34686 9.05557 6.23625 9.02861C6.14775 9.00706 6.05635 8.99766 5.96534 9.00076C5.61958 9.01256 5.29731 9.20857 5.12776 9.51009C5.07195 9.60934 5.0333 9.71809 5.01395 9.8303C5.00365 9.8902 5.00415 9.9056 5 9.9661C5 9.98886 5 10.0116 5 10.0344Z" fill="#0E0E0E"/>
</g>
</svg>
