<svg width="189" height="96" viewBox="0 0 189 96" fill="none" xmlns="http://www.w3.org/2000/svg">
<path d="M8.4752 34.8431L7.39453 30.9416L121.262 0L115.703 22.8154L185.705 4.94658L186.723 8.86576L110.139 28.413L115.671 5.71713L8.4752 34.8431Z" fill="white"/>
<path d="M68.4484 96L75.897 73.1093L1.04048 92.6388L0 88.7285L82.0729 67.3125L74.6154 90.2208L179.57 63.0479L180.602 66.9626L68.4484 96Z" fill="white"/>
<path d="M44.9506 38.2663C44.8301 37.757 44.3567 37.4559 43.8387 37.5577L41.405 38.0714C41.1504 38.1246 40.9227 38.2707 40.7039 38.5098C40.5387 38.6958 40.4091 38.904 40.3243 39.1387L34.4342 54.9748L33.3803 41.2865C33.3312 40.8303 33.1526 40.4938 32.8534 40.2768C32.6614 40.1395 32.3309 39.9934 31.8665 40.0908L29.6248 40.5646C29.3658 40.6222 29.1291 40.7728 28.9192 41.0208C28.7674 41.1979 28.6513 41.4016 28.5664 41.6275L22.6719 57.4769L21.5957 43.7797C21.5465 43.3236 21.3679 42.987 21.0687 42.77C20.8767 42.6327 20.5507 42.491 20.0818 42.584L17.0854 43.2173C16.6433 43.3147 16.3977 43.6823 16.3129 43.8063C16.1074 44.1163 16.0226 44.4218 16.0673 44.7185L17.983 69.5533C18.0321 70.0094 18.2063 70.346 18.5099 70.5674C18.6573 70.6737 18.8895 70.7844 19.1976 70.7844C19.2914 70.7844 19.3897 70.7756 19.4968 70.7534L21.7385 70.2796C22.069 70.2087 22.52 69.9696 22.8014 69.2167L28.6959 53.3673L29.7721 67.0601C29.8212 67.5162 29.9999 67.8528 30.2991 68.0698C30.4911 68.207 30.8215 68.3532 31.2904 68.2558L33.5322 67.7819C33.8626 67.7111 34.3136 67.4719 34.595 66.7191L44.8881 39.0545C44.9953 38.7667 45.0221 38.5098 44.964 38.2574L44.9506 38.2663Z" fill="#6EB24F"/>
<path d="M97.9526 26.0083C97.8321 25.499 97.3587 25.1935 96.8407 25.3042L94.4114 25.8179C94.1569 25.871 93.9247 26.0172 93.7059 26.2563C93.5406 26.4379 93.4111 26.6504 93.3218 26.8851L87.4317 42.7213L86.3734 29.0329C86.3243 28.5768 86.1456 28.2403 85.8464 28.0233C85.6544 27.886 85.3284 27.7398 84.8551 27.8373L82.6178 28.3111C82.3544 28.3643 82.1177 28.5192 81.9078 28.7672C81.7604 28.9444 81.6399 29.1481 81.555 29.3739L75.6604 45.2234L74.5842 31.5306C74.5351 31.0745 74.3565 30.7379 74.0573 30.5209C73.8653 30.3836 73.5393 30.2375 73.0659 30.3349L70.074 30.9682C69.6274 31.0612 69.3818 31.4376 69.297 31.5572C69.0916 31.8672 69.0067 32.1727 69.0514 32.4694L70.9671 57.3042C71.0162 57.7603 71.1904 58.0969 71.4941 58.3139C71.6414 58.4202 71.8736 58.5309 72.1818 58.5309C72.2755 58.5309 72.3738 58.522 72.481 58.4999L74.7227 58.026C75.0531 57.9552 75.5042 57.716 75.7855 56.9632L81.6801 41.1182L82.7563 54.811C82.8054 55.2671 82.984 55.6037 83.2832 55.8207C83.4752 55.9579 83.8057 56.1041 84.2746 56.0067L86.5118 55.5328C86.8423 55.462 87.2978 55.2228 87.5746 54.47L97.8678 26.8054C97.975 26.5176 97.9973 26.2607 97.9392 26.0127L97.9526 26.0083Z" fill="#6EB24F"/>
<path d="M121.674 38.4789C121.616 37.9873 121.379 37.7304 121.187 37.602C120.932 37.4293 120.611 37.3806 120.289 37.4603L117.731 38.1157C117.311 38.222 116.735 38.5231 116.355 39.3601L109.715 54.997L108.21 41.933C108.156 41.4415 107.915 41.1846 107.723 41.0518C107.469 40.8791 107.147 40.8259 106.821 40.9101L104.262 41.5655C103.843 41.6718 103.267 41.9729 102.887 42.8099L91.6874 69.261C91.5132 69.6596 91.549 70.0714 91.7901 70.3903C91.9955 70.6737 92.3036 70.8287 92.6252 70.8287C92.71 70.8287 92.7993 70.8198 92.8842 70.7977L96.3048 69.9209C96.7246 69.8146 97.3006 69.5135 97.6802 68.6765L104.321 53.0396L105.825 66.1035C105.883 66.5951 106.12 66.8519 106.312 66.9848C106.567 67.1575 106.884 67.2107 107.214 67.1265L109.773 66.4711C110.193 66.3648 110.769 66.0637 111.148 65.2267L117.762 49.6031L119.267 62.6582C119.32 63.1409 119.562 63.3978 119.754 63.5306C120.013 63.7078 120.343 63.7565 120.682 63.6723L123.456 62.9593C124.072 62.7999 124.416 62.2641 124.335 61.591L121.669 38.4833L121.674 38.4789Z" fill="#6EB24F"/>
<path d="M157.349 29.1392C157.291 28.6477 157.055 28.3908 156.863 28.2624C156.608 28.0897 156.291 28.041 155.965 28.1207L153.406 28.7761C152.986 28.8824 152.41 29.1835 152.035 30.0205L145.395 45.6574L143.89 32.5934C143.832 32.1019 143.595 31.845 143.403 31.7166C143.149 31.5439 142.827 31.4952 142.506 31.5749L139.947 32.2303C139.527 32.3366 138.951 32.6377 138.576 33.4747L127.376 59.9259C127.202 60.32 127.238 60.7318 127.479 61.0595C127.689 61.3385 127.993 61.4935 128.314 61.4935C128.399 61.4935 128.484 61.4847 128.573 61.4625L131.994 60.5857C132.413 60.4794 132.99 60.1783 133.369 59.3413L140.009 43.7044L141.514 56.7684C141.572 57.2599 141.809 57.5168 142.001 57.6452C142.256 57.8179 142.577 57.871 142.899 57.7869L145.457 57.1315C145.877 57.0252 146.453 56.7241 146.833 55.8871L153.446 40.2635L154.951 53.323C155.009 53.8057 155.246 54.0626 155.438 54.1954C155.697 54.3726 156.027 54.4213 156.362 54.3371L159.136 53.6242C159.747 53.4647 160.096 52.9289 160.02 52.2558L157.354 29.1481L157.349 29.1392Z" fill="#6EB24F"/>
<path d="M184.161 32.5226C184.045 30.7113 183.669 29.0817 183.044 27.6823C182.41 26.2608 181.589 25.1005 180.593 24.2325C179.575 23.338 178.387 22.78 177.069 22.5674C175.756 22.3593 174.368 22.5453 172.943 23.1254C171.554 23.6922 170.268 24.5779 169.121 25.7603C167.995 26.9206 167.035 28.2846 166.263 29.8079C165.495 31.3269 164.91 33.0009 164.53 34.7855C164.146 36.579 164.021 38.4213 164.159 40.2502C164.298 42.0969 164.673 43.7487 165.276 45.157C165.892 46.6006 166.705 47.7697 167.692 48.6377C168.705 49.5234 169.884 50.077 171.193 50.2807C171.519 50.3294 171.854 50.356 172.188 50.356C173.193 50.356 174.229 50.1301 175.288 49.6784C176.672 49.0894 177.949 48.1905 179.092 47.0125C180.213 45.8522 181.182 44.4838 181.973 42.9383C182.754 41.4105 183.348 39.7277 183.741 37.9474C184.134 36.1583 184.272 34.3338 184.156 32.5226H184.161ZM179.007 37.0263C178.793 38.1069 178.458 39.1254 178.012 40.051C177.569 40.9721 177.029 41.7958 176.404 42.4955C175.806 43.1686 175.154 43.669 174.484 43.9746C173.814 44.258 173.202 44.3466 172.613 44.2447C172.014 44.1384 171.483 43.8816 170.996 43.452C170.487 43.0047 170.054 42.3936 169.706 41.6319C169.348 40.8525 169.13 39.9402 169.054 38.9173C168.973 37.85 169.04 36.7739 169.259 35.7111C169.473 34.6438 169.804 33.6341 170.246 32.7042C170.679 31.7919 171.21 30.9771 171.836 30.2906C172.439 29.6264 173.09 29.1304 173.76 28.8248C174.417 28.5458 175.024 28.4573 175.627 28.5635C176.234 28.6654 176.77 28.9223 177.257 29.3385C177.761 29.7725 178.195 30.3748 178.538 31.1365C178.896 31.9159 179.115 32.8281 179.19 33.8644C179.284 34.8962 179.222 35.9635 179.012 37.0307L179.007 37.0263Z" fill="#6EB24F"/>
<path d="M66.5545 44.8559C66.4383 43.0446 66.0632 41.415 65.4381 40.0156C64.8039 38.594 63.9778 37.4338 62.9865 36.5658C61.9683 35.6713 60.7805 35.1133 59.4631 34.9007C58.1502 34.6926 56.7614 34.8786 55.3324 35.4587C53.9437 36.0255 52.6576 36.9157 51.5099 38.0936C50.3846 39.2539 49.4245 40.6178 48.6519 42.1412C47.8839 43.6558 47.3033 45.3341 46.9193 47.1188C46.5352 48.9168 46.4102 50.7546 46.5486 52.5835C46.6871 54.4258 47.0622 56.0776 47.665 57.4902C48.2813 58.9339 49.094 60.103 50.0809 60.971C51.0946 61.8567 52.2691 62.4103 53.5819 62.614C53.9079 62.6627 54.2428 62.6893 54.5778 62.6893C55.5825 62.6893 56.623 62.4634 57.6769 62.0117C59.0567 61.4227 60.3384 60.5237 61.4815 59.3458C62.6024 58.1855 63.5714 56.8171 64.3619 55.2716C65.1433 53.7438 65.7373 52.061 66.1302 50.2807C66.5232 48.4916 66.6616 46.6671 66.5455 44.8559H66.5545ZM61.4012 49.3596C61.1868 50.4401 60.8519 51.4587 60.4053 52.3842C59.9633 53.3054 59.4229 54.129 58.7977 54.8287C58.1993 55.5019 57.5474 56.0023 56.8775 56.3079C56.2077 56.5913 55.5959 56.6843 55.0065 56.578C54.4081 56.4717 53.8767 56.2149 53.3899 55.7853C52.8808 55.338 52.4477 54.7269 52.0994 53.9652C51.7421 53.1858 51.5233 52.2735 51.4474 51.2506C51.367 50.1833 51.4385 49.1072 51.6483 48.0444C51.8627 46.9771 52.1976 45.963 52.6352 45.0374C53.0684 44.1207 53.5998 43.3103 54.225 42.6239C54.8278 41.9597 55.4798 41.4637 56.1496 41.1581C56.8016 40.8791 57.4134 40.795 58.0163 40.8968C58.6236 40.9987 59.1595 41.2555 59.6462 41.6718C60.1508 42.1058 60.584 42.7081 60.9278 43.4653C61.2851 44.2447 61.5039 45.157 61.5798 46.1933C61.6736 47.2251 61.6111 48.2924 61.4012 49.3596Z" fill="#6EB24F"/>
</svg>
