<svg width="21" height="15" viewBox="0 0 21 15" fill="none" xmlns="http://www.w3.org/2000/svg">
<path d="M20.1094 4.96094C20.2656 4.84375 20.5 4.96094 20.5 5.15625V13.125C20.5 14.1797 19.6406 15 18.625 15H2.375C1.32031 15 0.5 14.1797 0.5 13.125V5.15625C0.5 4.96094 0.695312 4.84375 0.851562 4.96094C1.75 5.66406 2.88281 6.52344 6.86719 9.41406C7.6875 10 9.09375 11.2891 10.5 11.2891C11.8672 11.2891 13.3125 10 14.0938 9.41406C18.0781 6.52344 19.2109 5.66406 20.1094 4.96094ZM10.5 10C9.5625 10.0391 8.27344 8.86719 7.60938 8.39844C2.41406 4.64844 2.02344 4.29688 0.851562 3.35938C0.617188 3.20312 0.5 2.92969 0.5 2.61719V1.875C0.5 0.859375 1.32031 0 2.375 0H18.625C19.6406 0 20.5 0.859375 20.5 1.875V2.61719C20.5 2.92969 20.3438 3.20312 20.1094 3.35938C18.9375 4.29688 18.5469 4.64844 13.3516 8.39844C12.6875 8.86719 11.3984 10.0391 10.5 10Z" fill="white"/>
</svg>
