<svg width="179" height="91" viewBox="0 0 179 91" fill="none" xmlns="http://www.w3.org/2000/svg">
<path d="M8.48164 33.0283L7.46387 29.3301L114.705 0L109.468 21.6271L175.397 4.68895L176.356 8.404L104.228 26.9331L109.439 5.41937L8.48164 33.0283Z" fill="white"/>
<path d="M64.9647 91L71.9797 69.3016L1.47992 87.8139L0.5 84.1072L77.7962 63.8066L70.7727 85.5219L169.619 59.7642L170.59 63.475L64.9647 91Z" fill="white"/>
<path d="M42.8344 36.2733C42.7208 35.7906 42.275 35.5051 41.7871 35.6017L39.495 36.0886C39.2553 36.139 39.0408 36.2775 38.8348 36.5042C38.6791 36.6805 38.5572 36.8778 38.4773 37.1003L32.93 52.1116L31.9374 39.1362C31.8912 38.7038 31.7229 38.3848 31.4412 38.1791C31.2603 38.049 30.9491 37.9105 30.5117 38.0028L28.4005 38.452C28.1565 38.5065 27.9336 38.6493 27.736 38.8843C27.593 39.0523 27.4836 39.2454 27.4037 39.4594L21.8522 54.4834L20.8386 41.4996C20.7924 41.0672 20.6242 40.7482 20.3424 40.5425C20.1615 40.4123 19.8545 40.278 19.4129 40.3662L16.5909 40.9665C16.1745 41.0588 15.9432 41.4072 15.8633 41.5248C15.6699 41.8186 15.59 42.1083 15.632 42.3895L17.4363 65.9308C17.4825 66.3632 17.6465 66.6822 17.9325 66.8921C18.0713 66.9928 18.29 67.0978 18.5802 67.0978C18.6685 67.0978 18.761 67.0894 18.862 67.0684L20.9732 66.6192C21.2844 66.5521 21.7092 66.3254 21.9742 65.6118L27.5257 50.5878L28.5392 63.5674C28.5855 63.9998 28.7537 64.3188 29.0355 64.5245C29.2164 64.6547 29.5276 64.7932 29.9692 64.7008L32.0804 64.2517C32.3916 64.1845 32.8164 63.9578 33.0814 63.2442L42.7755 37.0205C42.8764 36.7477 42.9016 36.5042 42.847 36.2649L42.8344 36.2733Z" fill="#6EB24F"/>
<path d="M92.7516 24.6538C92.638 24.171 92.1922 23.8814 91.7044 23.9863L89.4165 24.4733C89.1767 24.5237 88.958 24.6622 88.752 24.8889C88.5964 25.061 88.4744 25.2625 88.3903 25.485L82.843 40.4963L81.8462 27.5209C81.8 27.0885 81.6318 26.7695 81.35 26.5638C81.1691 26.4337 80.8621 26.2951 80.4163 26.3875L78.3093 26.8366C78.0611 26.887 77.8382 27.0339 77.6406 27.269C77.5018 27.4369 77.3882 27.63 77.3083 27.8441L71.7568 42.8681L70.7432 29.8884C70.697 29.4561 70.5288 29.137 70.247 28.9313C70.0661 28.8012 69.7591 28.6627 69.3133 28.755L66.4955 29.3553C66.0749 29.4435 65.8436 29.8003 65.7637 29.9136C65.5703 30.2075 65.4904 30.4971 65.5324 30.7784L67.3366 54.3197C67.3829 54.752 67.5469 55.0711 67.8329 55.2768C67.9717 55.3775 68.1904 55.4825 68.4806 55.4825C68.5689 55.4825 68.6614 55.4741 68.7624 55.4531L70.8736 55.0039C71.1848 54.9367 71.6096 54.7101 71.8746 53.9964L77.4261 38.9767L78.4396 51.9563C78.4859 52.3887 78.6541 52.7077 78.9359 52.9134C79.1168 53.0435 79.428 53.1821 79.8696 53.0897L81.9766 52.6405C82.2878 52.5734 82.7168 52.3467 82.9776 51.6331L92.6717 25.4094C92.7726 25.1365 92.7936 24.8931 92.739 24.658L92.7516 24.6538Z" fill="#6EB24F"/>
<path d="M115.092 36.4748C115.037 36.0089 114.815 35.7654 114.634 35.6437C114.394 35.4799 114.091 35.4338 113.788 35.5093L111.379 36.1306C110.983 36.2313 110.441 36.5168 110.083 37.3102L103.829 52.1326L102.412 39.7491C102.362 39.2831 102.134 39.0397 101.954 38.9137C101.714 38.75 101.411 38.6997 101.104 38.7794L98.6942 39.4007C98.2988 39.5014 97.7563 39.7869 97.3988 40.5803L86.851 65.6538C86.687 66.0316 86.7206 66.422 86.9477 66.7242C87.1412 66.9929 87.4314 67.1398 87.7342 67.1398C87.8141 67.1398 87.8982 67.1314 87.9781 67.1104L91.1996 66.2792C91.595 66.1785 92.1375 65.893 92.495 65.0996L98.7488 50.2772L100.166 62.6607C100.221 63.1267 100.444 63.3701 100.625 63.4961C100.864 63.6598 101.163 63.7102 101.474 63.6304L103.884 63.0091C104.279 62.9084 104.822 62.6229 105.179 61.8296L111.408 47.0197L112.825 59.3948C112.876 59.8524 113.103 60.0959 113.284 60.2218C113.528 60.3897 113.839 60.4359 114.158 60.3561L116.77 59.6803C117.351 59.5292 117.674 59.0212 117.599 58.3832L115.088 36.479L115.092 36.4748Z" fill="#6EB24F"/>
<path d="M148.691 27.6216C148.637 27.1557 148.414 26.9122 148.233 26.7905C147.993 26.6268 147.695 26.5806 147.388 26.6562L144.978 27.2774C144.582 27.3782 144.04 27.6636 143.687 28.457L137.433 43.2795L136.015 30.8959C135.961 30.43 135.738 30.1865 135.557 30.0648C135.317 29.9011 135.014 29.8549 134.712 29.9304L132.302 30.5517C131.906 30.6525 131.364 30.9379 131.011 31.7313L120.463 56.8048C120.299 57.1784 120.332 57.5688 120.56 57.8794C120.757 58.1439 121.043 58.2908 121.346 58.2908C121.426 58.2908 121.506 58.2824 121.59 58.2614L124.811 57.4303C125.207 57.3295 125.749 57.0441 126.107 56.2507L132.361 41.4282L133.778 53.8117C133.833 54.2777 134.056 54.5212 134.236 54.6429C134.476 54.8066 134.779 54.857 135.082 54.7772L137.492 54.156C137.887 54.0552 138.429 53.7698 138.787 52.9764L145.016 38.1665L146.433 50.5459C146.488 51.0034 146.71 51.2469 146.891 51.3728C147.135 51.5407 147.446 51.5869 147.762 51.5072L150.374 50.8313C150.95 50.6802 151.278 50.1723 151.206 49.5342L148.696 27.63L148.691 27.6216Z" fill="#6EB24F"/>
<path d="M173.942 30.8288C173.833 29.1119 173.48 27.5671 172.891 26.2406C172.294 24.8931 171.52 23.7933 170.582 22.9705C169.623 22.1225 168.504 21.5936 167.264 21.3921C166.027 21.1948 164.719 21.3711 163.378 21.921C162.07 22.4584 160.858 23.2979 159.777 24.4187C158.718 25.5185 157.813 26.8115 157.086 28.2555C156.362 29.6954 155.812 31.2821 155.454 32.9739C155.092 34.674 154.975 36.4202 155.105 38.1539C155.235 39.9044 155.589 41.4702 156.156 42.8051C156.737 44.1736 157.502 45.2818 158.432 46.1046C159.386 46.9441 160.497 47.4689 161.729 47.662C162.036 47.7081 162.351 47.7333 162.667 47.7333C163.613 47.7333 164.589 47.5192 165.586 47.0911C166.889 46.5328 168.092 45.6806 169.169 44.564C170.224 43.4642 171.137 42.167 171.881 40.702C172.617 39.2538 173.177 37.6586 173.547 35.9711C173.917 34.2752 174.047 32.5457 173.938 30.8288H173.942ZM169.089 35.0979C168.887 36.1222 168.572 37.0877 168.151 37.965C167.735 38.8382 167.226 39.619 166.637 40.2822C166.073 40.9203 165.459 41.3946 164.828 41.6843C164.198 41.953 163.621 42.0369 163.066 41.9404C162.503 41.8396 162.002 41.5961 161.544 41.189C161.064 40.765 160.656 40.1857 160.328 39.4637C159.992 38.7248 159.786 37.8601 159.714 36.8904C159.639 35.8787 159.702 34.8587 159.908 33.8512C160.11 32.8395 160.421 31.8824 160.837 31.0009C161.245 30.1361 161.746 29.3637 162.335 28.7131C162.902 28.0834 163.516 27.6133 164.147 27.3236C164.765 27.0591 165.337 26.9752 165.905 27.0759C166.477 27.1725 166.982 27.416 167.44 27.8106C167.915 28.2219 168.323 28.7928 168.647 29.5149C168.984 30.2537 169.19 31.1184 169.261 32.1007C169.35 33.0788 169.291 34.0905 169.093 35.1021L169.089 35.0979Z" fill="#6EB24F"/>
<path d="M63.1808 42.5197C63.0714 40.8028 62.7182 39.258 62.1294 37.9315C61.5322 36.584 60.7541 35.4842 59.8205 34.6614C58.8616 33.8135 57.7429 33.2845 56.5022 33.083C55.2657 32.8857 53.9577 33.062 52.6119 33.612C51.304 34.1493 50.0927 34.993 49.0119 36.1097C47.952 37.2095 47.0478 38.5024 46.3202 39.9464C45.5968 41.3821 45.0501 42.9731 44.6884 44.6648C44.3267 46.3691 44.209 48.1112 44.3393 49.8449C44.4697 51.5912 44.823 53.1569 45.3908 54.496C45.9712 55.8645 46.7366 56.9727 47.666 57.7955C48.6207 58.6351 49.7268 59.1598 50.9633 59.3529C51.2703 59.3991 51.5857 59.4243 51.9012 59.4243C52.8474 59.4243 53.8274 59.2102 54.8199 58.782C56.1195 58.2237 57.3265 57.3715 58.4031 56.2549C59.4588 55.1551 60.3714 53.858 61.1158 52.3929C61.8518 50.9447 62.4112 49.3495 62.7813 47.662C63.1514 45.9661 63.2817 44.2366 63.1724 42.5197H63.1808ZM58.3274 46.7889C58.1256 47.8131 57.8101 48.7786 57.3896 49.656C56.9732 50.5291 56.4643 51.3099 55.8755 51.9732C55.312 52.6112 54.6979 53.0856 54.0671 53.3752C53.4362 53.6439 52.8601 53.732 52.3049 53.6313C51.7414 53.5305 51.2409 53.2871 50.7825 52.8799C50.303 52.4559 49.8951 51.8766 49.567 51.1546C49.2306 50.4158 49.0245 49.551 48.953 48.5813C48.8773 47.5697 48.9446 46.5496 49.1422 45.5421C49.3441 44.5304 49.6595 43.5692 50.0717 42.6918C50.4796 41.8229 50.9801 41.0547 51.5689 40.404C52.1367 39.7743 52.7507 39.3042 53.3816 39.0145C53.9956 38.7501 54.5718 38.6703 55.1395 38.7669C55.7115 38.8634 56.2162 39.1069 56.6746 39.5015C57.1499 39.9129 57.5578 40.4838 57.8816 41.2016C58.2181 41.9404 58.4242 42.8052 58.4957 43.7874C58.584 44.7655 58.5251 45.7772 58.3274 46.7889Z" fill="#6EB24F"/>
</svg>
