<svg width="24" height="24" viewBox="0 0 24 24" fill="none" xmlns="http://www.w3.org/2000/svg">
<path d="M17.0509 20.9491C16.5748 21.1901 16.1952 21.0644 15.8306 20.6912C14.8396 19.6761 13.8301 18.6795 12.8237 17.68C12.7285 17.5848 12.6881 17.491 12.6885 17.3571C12.6927 15.9125 12.6908 14.4679 12.6916 13.0234C12.6916 12.9666 12.6967 12.9097 12.7002 12.8426C12.7669 12.8396 12.8241 12.834 12.881 12.834C14.3255 12.8332 15.7701 12.8351 17.2147 12.8309C17.3494 12.8305 17.4433 12.8709 17.538 12.9656C18.538 13.9717 19.5341 14.9816 20.5492 15.9725C20.9224 16.3372 21.0486 16.7164 20.8071 17.1929L17.0505 20.9495L17.0509 20.9491Z" fill="#6EB24F"/>
<path d="M2.90861 17.1929C2.66709 16.7164 2.79318 16.3371 3.16721 15.9726C4.18213 14.9818 5.17897 13.972 6.17839 12.9657C6.27351 12.8706 6.36734 12.8301 6.50164 12.831C7.94622 12.8354 9.3908 12.8338 10.8354 12.8339C10.8922 12.8339 10.949 12.8391 11.0175 12.8421C11.0205 12.9157 11.0252 12.979 11.0248 13.0423C11.0253 14.4804 11.0233 15.9185 11.0277 17.3562C11.0282 17.491 10.9877 17.5848 10.893 17.6795C9.88713 18.6793 8.87695 19.6757 7.88614 20.6906C7.52158 21.0638 7.14237 21.1908 6.66584 20.9493L2.90947 17.1929L2.90861 17.1929Z" fill="#6EB24F"/>
<path d="M12.6987 11.1566C12.6957 11.083 12.6914 11.0193 12.6918 10.956C12.6913 9.5239 12.6933 8.09181 12.6885 6.65971C12.688 6.51981 12.7229 6.41866 12.8253 6.31708C13.851 5.29916 14.8706 4.2752 15.8933 3.25426C16.3452 2.80233 16.8019 2.80279 17.2518 3.25179C18.3702 4.37017 19.489 5.48899 20.6074 6.60738C21.0508 7.05078 21.0547 7.51178 20.6157 7.95167C19.5857 8.98423 18.5548 10.0151 17.5201 11.0429C17.4586 11.1044 17.357 11.1613 17.2739 11.1617C15.7897 11.1685 14.3056 11.1666 12.8214 11.1665C12.7835 11.1665 12.7465 11.1613 12.6987 11.1575V11.1566Z" fill="#6EB24F"/>
<path d="M11.0156 11.1582C10.9429 11.1612 10.8796 11.1659 10.8163 11.1663C9.37779 11.1671 7.93924 11.1653 6.50069 11.1695C6.36596 11.1699 6.27212 11.1294 6.17741 11.0338C5.15846 10.0089 4.13564 8.98863 3.11411 7.96624C2.65608 7.50821 2.65949 7.05624 3.12176 6.59397C4.23566 5.48006 5.34957 4.36616 6.46348 3.25225C6.91327 2.80246 7.36997 2.80293 7.82197 3.25407C8.8491 4.27948 9.87666 5.30531 10.8982 6.33631C10.9632 6.40131 11.0183 6.51151 11.0187 6.60062C11.0262 8.07145 11.0237 9.54272 11.0238 11.014C11.0238 11.0579 11.0191 11.1022 11.0156 11.1582Z" fill="#6EB24F"/>
</svg>
