<svg width="82" height="42" viewBox="0 0 82 42" fill="none" xmlns="http://www.w3.org/2000/svg">
<path d="M3.67687 15.2438L3.20801 13.537L52.611 0L50.1989 9.98173L80.5703 2.16413L81.0121 3.87877L47.7848 12.4307L50.1853 2.50125L3.67687 15.2438Z" fill="white"/>
<path d="M29.6972 42L32.9289 31.9853L0.451425 40.5295L0 38.8187L35.6084 29.4492L32.3728 39.4716L77.9087 27.5834L78.3562 29.2961L29.6972 42Z" fill="white"/>
<path d="M19.5023 16.7415C19.45 16.5187 19.2446 16.3869 19.0198 16.4315L17.9639 16.6562C17.8535 16.6795 17.7547 16.7434 17.6598 16.848C17.5881 16.9294 17.5319 17.0205 17.4951 17.1231L14.9396 24.0515L14.4823 18.0628C14.461 17.8633 14.3835 17.716 14.2537 17.6211C14.1704 17.561 14.027 17.4971 13.8255 17.5397L12.8529 17.747C12.7406 17.7722 12.6379 17.8381 12.5468 17.9466C12.481 18.0241 12.4306 18.1132 12.3938 18.212L9.83634 25.1461L9.36941 19.1536C9.3481 18.954 9.2706 18.8068 9.14079 18.7119C9.05748 18.6518 8.91605 18.5898 8.71262 18.6305L7.41259 18.9075C7.22078 18.9502 7.11422 19.111 7.07741 19.1652C6.98829 19.3008 6.95148 19.4345 6.97085 19.5643L7.80202 30.4295C7.82333 30.6291 7.89889 30.7763 8.03064 30.8732C8.09457 30.9197 8.19532 30.9682 8.329 30.9682C8.36969 30.9682 8.41231 30.9643 8.45881 30.9546L9.43141 30.7473C9.57478 30.7163 9.77046 30.6117 9.89252 30.2823L12.45 23.3482L12.9169 29.3388C12.9382 29.5383 13.0157 29.6856 13.1455 29.7805C13.2288 29.8406 13.3722 29.9045 13.5756 29.8619L14.5482 29.6546C14.6916 29.6236 14.8873 29.5189 15.0093 29.1896L19.4751 17.0863C19.5216 16.9604 19.5333 16.848 19.5081 16.7376L19.5023 16.7415Z" fill="#6EB24F"/>
<path d="M42.4978 11.3786C42.4455 11.1558 42.2402 11.0221 42.0154 11.0706L40.9614 11.2953C40.851 11.3186 40.7503 11.3825 40.6553 11.4871C40.5836 11.5665 40.5275 11.6595 40.4887 11.7622L37.9332 18.6905L37.474 12.7019C37.4527 12.5023 37.3752 12.3551 37.2454 12.2602C37.1621 12.2001 37.0207 12.1362 36.8153 12.1788L35.8446 12.3861C35.7303 12.4093 35.6276 12.4771 35.5366 12.5856C35.4726 12.6631 35.4203 12.7523 35.3835 12.8511L32.8261 19.7852L32.3592 13.7946C32.3379 13.5951 32.2604 13.4478 32.1306 13.3529C32.0472 13.2928 31.9058 13.2289 31.7004 13.2715L30.4023 13.5486C30.2086 13.5892 30.102 13.7539 30.0652 13.8062C29.9761 13.9419 29.9393 14.0755 29.9587 14.2054L30.7898 25.0706C30.8111 25.2701 30.8867 25.4174 31.0185 25.5123C31.0824 25.5588 31.1831 25.6072 31.3168 25.6072C31.3575 25.6072 31.4001 25.6034 31.4466 25.5937L32.4192 25.3864C32.5626 25.3554 32.7583 25.2507 32.8803 24.9214L35.4378 17.9892L35.9047 23.9798C35.926 24.1793 36.0035 24.3266 36.1333 24.4215C36.2166 24.4816 36.36 24.5455 36.5634 24.5029L37.5341 24.2956C37.6775 24.2646 37.8751 24.16 37.9952 23.8306L42.461 11.7274C42.5075 11.6014 42.5172 11.489 42.492 11.3806L42.4978 11.3786Z" fill="#6EB24F"/>
<path d="M52.7895 16.8345C52.7644 16.6194 52.6617 16.507 52.5784 16.4509C52.4679 16.3753 52.3284 16.354 52.1889 16.3889L51.0788 16.6756C50.8967 16.7221 50.6467 16.8538 50.482 17.22L47.6011 24.0612L46.9481 18.3457C46.9249 18.1306 46.8203 18.0183 46.737 17.9601C46.6265 17.8846 46.487 17.8613 46.3456 17.8981L45.2354 18.1849C45.0533 18.2314 44.8034 18.3631 44.6387 18.7293L39.7796 30.3017C39.704 30.476 39.7195 30.6562 39.8241 30.7957C39.9133 30.9197 40.047 30.9875 40.1864 30.9875C40.2233 30.9875 40.262 30.9837 40.2988 30.974L41.7829 30.5904C41.965 30.5439 42.215 30.4121 42.3796 30.0459L45.2606 23.2048L45.9135 28.9203C45.9387 29.1353 46.0414 29.2477 46.1247 29.3058C46.2352 29.3814 46.3727 29.4046 46.5161 29.3678L47.6263 29.0811C47.8084 29.0346 48.0583 28.9028 48.223 28.5367L51.0923 21.7013L51.7453 27.4129C51.7685 27.6241 51.8731 27.7365 51.9564 27.7946C52.0688 27.8721 52.2122 27.8934 52.3594 27.8566L53.5626 27.5447C53.83 27.4749 53.9791 27.2405 53.9443 26.946L52.7876 16.8364L52.7895 16.8345Z" fill="#6EB24F"/>
<path d="M68.2678 12.7484C68.2426 12.5333 68.1399 12.421 68.0566 12.3648C67.9462 12.2892 67.8086 12.2679 67.6672 12.3028L66.5571 12.5895C66.3749 12.636 66.125 12.7678 65.9623 13.1339L63.0813 19.9751L62.4284 14.2596C62.4032 14.0445 62.3005 13.9322 62.2172 13.876C62.1067 13.8004 61.9672 13.7791 61.8277 13.814L60.7176 14.1007C60.5355 14.1472 60.2855 14.279 60.1228 14.6452L55.2637 26.2175C55.1881 26.39 55.2036 26.5702 55.3082 26.7135C55.3993 26.8356 55.531 26.9034 55.6705 26.9034C55.7073 26.9034 55.7442 26.8995 55.7829 26.8898L57.267 26.5062C57.4491 26.4597 57.699 26.328 57.8637 25.9618L60.7447 19.1207L61.3976 24.8361C61.4228 25.0512 61.5255 25.1636 61.6088 25.2197C61.7192 25.2953 61.8587 25.3186 61.9982 25.2817L63.1084 24.995C63.2905 24.9485 63.5404 24.8168 63.7051 24.4506L66.5745 17.6153L67.2274 23.3288C67.2526 23.54 67.3553 23.6524 67.4386 23.7105C67.551 23.788 67.6943 23.8093 67.8396 23.7725L69.0428 23.4605C69.3082 23.3908 69.4594 23.1564 69.4264 22.8619L68.2698 12.7523L68.2678 12.7484Z" fill="#6EB24F"/>
<path d="M79.9003 14.2286C79.8499 13.4362 79.6871 12.7232 79.4159 12.111C79.1408 11.4891 78.7843 10.9814 78.3522 10.6017C77.9105 10.2103 77.3951 9.96622 76.8236 9.87322C76.254 9.78216 75.6514 9.86354 75.0334 10.1173C74.4308 10.3653 73.8729 10.7528 73.3749 11.2701C72.8867 11.7777 72.4702 12.3745 72.135 13.041C71.8017 13.7055 71.5479 14.4379 71.3832 15.2186C71.2166 16.0033 71.1624 16.8093 71.2224 17.6095C71.2825 18.4174 71.4452 19.14 71.7068 19.7561C71.9742 20.3878 72.3268 20.8992 72.755 21.279C73.1948 21.6665 73.7062 21.9087 74.2739 21.9978C74.4153 22.0191 74.5607 22.0307 74.706 22.0307C75.1419 22.0307 75.5914 21.9319 76.0506 21.7343C76.6512 21.4766 77.2053 21.0833 77.7013 20.5679C78.1876 20.0603 78.608 19.4617 78.9509 18.7855C79.29 18.1171 79.5476 17.3808 79.7181 16.602C79.8886 15.8193 79.9487 15.021 79.8983 14.2286H79.9003ZM77.6644 16.199C77.5714 16.6717 77.4261 17.1173 77.2324 17.5223C77.0406 17.9253 76.8062 18.2856 76.5349 18.5917C76.2753 18.8862 75.9924 19.1052 75.7018 19.2388C75.4112 19.3628 75.1458 19.4016 74.89 19.357C74.6304 19.3105 74.3998 19.1982 74.1887 19.0102C73.9678 18.8145 73.7799 18.5472 73.6287 18.2139C73.4737 17.8729 73.3788 17.4738 73.3459 17.0263C73.311 16.5594 73.3401 16.0886 73.435 15.6236C73.528 15.1566 73.6714 14.7149 73.8632 14.308C74.0511 13.9089 74.2817 13.5524 74.5529 13.2521C74.8145 12.9615 75.0973 12.7445 75.3879 12.6108C75.6727 12.4888 75.9362 12.45 76.1978 12.4965C76.4613 12.5411 76.6938 12.6535 76.905 12.8356C77.1239 13.0255 77.3118 13.2889 77.461 13.6222C77.616 13.9632 77.7109 14.3623 77.7439 14.8157C77.7846 15.2671 77.7574 15.734 77.6664 16.2009L77.6644 16.199Z" fill="#6EB24F"/>
<path d="M28.8753 19.6244C28.825 18.832 28.6622 18.119 28.391 17.5068C28.1159 16.8849 27.7574 16.3773 27.3273 15.9975C26.8856 15.6062 26.3702 15.362 25.7987 15.269C25.2291 15.178 24.6265 15.2593 24.0065 15.5132C23.404 15.7611 22.846 16.1506 22.3481 16.6659C21.8598 17.1735 21.4433 17.7703 21.1081 18.4368C20.7749 19.0994 20.523 19.8337 20.3564 20.6145C20.1898 21.4011 20.1355 22.2051 20.1956 23.0053C20.2556 23.8112 20.4184 24.5339 20.6799 25.152C20.9473 25.7836 21.2999 26.2951 21.7281 26.6748C22.1679 27.0623 22.6774 27.3045 23.2471 27.3936C23.3885 27.4149 23.5338 27.4265 23.6791 27.4265C24.115 27.4265 24.5665 27.3277 25.0237 27.1301C25.6224 26.8724 26.1784 26.4791 26.6744 25.9637C27.1607 25.4561 27.5811 24.8575 27.9241 24.1813C28.2631 23.5129 28.5208 22.7766 28.6913 21.9978C28.8618 21.2151 28.9218 20.4168 28.8715 19.6244H28.8753ZM26.6395 21.5948C26.5465 22.0675 26.4012 22.5132 26.2075 22.9181C26.0157 23.3211 25.7812 23.6814 25.51 23.9876C25.2504 24.282 24.9675 24.501 24.6769 24.6347C24.3863 24.7587 24.1208 24.7993 23.8651 24.7528C23.6055 24.7063 23.3749 24.594 23.1637 24.406C22.9429 24.2104 22.7549 23.943 22.6038 23.6098C22.4488 23.2688 22.3539 22.8696 22.321 22.4221C22.2861 21.9552 22.3171 21.4844 22.4081 21.0194C22.5011 20.5525 22.6465 20.1088 22.8363 19.7039C23.0243 19.3028 23.2548 18.9483 23.5261 18.6479C23.7876 18.3573 24.0705 18.1403 24.3611 18.0067C24.644 17.8846 24.9094 17.8478 25.1709 17.8923C25.4344 17.9369 25.6669 18.0493 25.8781 18.2314C26.097 18.4213 26.285 18.6848 26.4342 19.0161C26.5892 19.3571 26.6841 19.7562 26.717 20.2095C26.7577 20.661 26.7306 21.1279 26.6395 21.5948Z" fill="#6EB24F"/>
</svg>
