<svg width="135" height="70" viewBox="0 0 135 70" fill="none" xmlns="http://www.w3.org/2000/svg">
<path d="M6.05316 25.4064L5.28125 22.5616L86.6154 0L82.6443 16.6362L132.646 3.60688L133.373 6.46462L78.6699 20.7178L82.6219 4.16874L6.05316 25.4064Z" fill="white"/>
<path d="M48.8917 70L54.2122 53.3089L0.7432 67.5491L0 64.6978L58.6235 49.082L53.2967 65.786L128.264 45.9724L129.001 48.8269L48.8917 70Z" fill="white"/>
<path d="M32.107 27.9025C32.0209 27.5311 31.6828 27.3115 31.3128 27.3858L29.5744 27.7604C29.3926 27.7991 29.2299 27.9057 29.0736 28.08C28.9556 28.2157 28.8631 28.3674 28.8025 28.5386L24.5953 40.0858L23.8425 30.1047C23.8074 29.7721 23.6799 29.5267 23.4661 29.3685C23.329 29.2684 23.0929 29.1618 22.7612 29.2328L21.16 29.5783C20.975 29.6203 20.8059 29.7301 20.656 29.9109C20.5476 30.0401 20.4646 30.1886 20.404 30.3533L16.1936 41.9102L15.4249 31.9227C15.3898 31.5901 15.2622 31.3447 15.0485 31.1864C14.9114 31.0863 14.6785 30.983 14.3436 31.0508L12.2033 31.5126C11.8875 31.5836 11.7121 31.8516 11.6515 31.942C11.5048 32.1681 11.4442 32.3909 11.4761 32.6072L12.8444 50.7159C12.8795 51.0485 13.0039 51.2939 13.2208 51.4554C13.3261 51.5329 13.4919 51.6136 13.712 51.6136C13.779 51.6136 13.8492 51.6071 13.9257 51.591L15.527 51.2455C15.763 51.1938 16.0852 51.0194 16.2861 50.4705L20.4965 38.9136L21.2652 48.8979C21.3003 49.2305 21.4279 49.4759 21.6416 49.6342C21.7788 49.7343 22.0148 49.8408 22.3497 49.7698L23.951 49.4243C24.187 49.3726 24.5092 49.1982 24.7101 48.6493L32.0624 28.4772C32.1389 28.2673 32.1581 28.08 32.1166 27.896L32.107 27.9025Z" fill="#6EB24F"/>
<path d="M69.9656 18.9644C69.8795 18.593 69.5414 18.3702 69.1714 18.4509L67.4362 18.8255C67.2544 18.8643 67.0885 18.9708 66.9322 19.1452C66.8142 19.2776 66.7217 19.4326 66.6579 19.6037L62.4507 31.1509L61.6947 21.1698C61.6596 20.8372 61.532 20.5918 61.3183 20.4336C61.1812 20.3335 60.9483 20.2269 60.6102 20.298L59.0122 20.6435C58.824 20.6822 58.6549 20.7952 58.505 20.9761C58.3997 21.1052 58.3136 21.2538 58.253 21.4185L54.0426 32.9753L53.2739 22.991C53.2388 22.6584 53.1112 22.413 52.8975 22.2548C52.7604 22.1547 52.5275 22.0481 52.1894 22.1192L50.0523 22.5809C49.7333 22.6487 49.5579 22.9232 49.4973 23.0104C49.3506 23.2364 49.29 23.4592 49.3219 23.6756L50.6902 41.7843C50.7253 42.1169 50.8497 42.3623 51.0666 42.5205C51.1719 42.598 51.3378 42.6787 51.5578 42.6787C51.6248 42.6787 51.695 42.6723 51.7716 42.6561L53.3728 42.3106C53.6088 42.2589 53.931 42.0846 54.1319 41.5356L58.3423 29.982L59.1111 39.9663C59.1461 40.2989 59.2737 40.5443 59.4874 40.7025C59.6246 40.8026 59.8606 40.9092 60.1956 40.8381L61.7936 40.4926C62.0296 40.441 62.355 40.2666 62.5527 39.7177L69.905 19.5456C69.9816 19.3357 69.9975 19.1484 69.956 18.9676L69.9656 18.9644Z" fill="#6EB24F"/>
<path d="M86.9093 28.0575C86.8678 27.699 86.6988 27.5117 86.5616 27.4181C86.3798 27.2922 86.1501 27.2566 85.9205 27.3148L84.0928 27.7927C83.7929 27.8702 83.3815 28.0897 83.1104 28.7L78.3673 40.1019L77.2923 30.5761C77.2541 30.2177 77.0818 30.0304 76.9447 29.9336C76.7628 29.8076 76.5332 29.7689 76.3003 29.8302L74.4726 30.3081C74.1728 30.3856 73.7613 30.6052 73.4902 31.2155L65.4904 50.5028C65.366 50.7934 65.3916 51.0937 65.5638 51.3262C65.7105 51.5329 65.9306 51.6459 66.1603 51.6459C66.2209 51.6459 66.2847 51.6394 66.3453 51.6233L68.7886 50.9839C69.0884 50.9064 69.4999 50.6869 69.771 50.0766L74.5141 38.6747L75.589 48.2005C75.6305 48.5589 75.7996 48.7462 75.9367 48.843C76.1185 48.969 76.345 49.0077 76.581 48.9464L78.4087 48.4685C78.7086 48.391 79.12 48.1714 79.3912 47.5611L84.1151 36.1689L85.19 45.6882C85.2283 46.0402 85.4006 46.2275 85.5377 46.3244C85.7227 46.4535 85.9588 46.489 86.2012 46.4277L88.182 45.9078C88.6221 45.7916 88.8678 45.4008 88.8103 44.91L86.9061 28.0607L86.9093 28.0575Z" fill="#6EB24F"/>
<path d="M112.392 21.2473C112.35 20.8889 112.181 20.7016 112.044 20.608C111.862 20.482 111.636 20.4465 111.403 20.5046L109.575 20.9825C109.275 21.06 108.864 21.2796 108.596 21.8899L103.853 33.2918L102.778 23.766C102.737 23.4076 102.568 23.2203 102.43 23.1267C102.249 23.0007 102.019 22.9652 101.789 23.0233L99.9615 23.5012C99.6617 23.5787 99.2502 23.7983 98.9823 24.4086L90.9825 43.6959C90.8581 43.9833 90.8837 44.2836 91.0559 44.5225C91.2058 44.726 91.4227 44.839 91.6524 44.839C91.713 44.839 91.7736 44.8325 91.8374 44.8164L94.2807 44.177C94.5805 44.0995 94.992 43.8799 95.2631 43.2697L100.006 31.8678L101.081 41.3936C101.123 41.752 101.292 41.9393 101.429 42.0329C101.611 42.1588 101.84 42.1976 102.07 42.1362L103.898 41.6583C104.197 41.5808 104.609 41.3613 104.88 40.751L109.604 29.3588L110.679 38.8813C110.72 39.2333 110.889 39.4206 111.027 39.5175C111.212 39.6466 111.448 39.6821 111.687 39.6208L113.668 39.1009C114.105 38.9847 114.353 38.5939 114.299 38.1031L112.395 21.2538L112.392 21.2473Z" fill="#6EB24F"/>
<path d="M131.543 23.7143C131.46 22.3937 131.192 21.2053 130.745 20.185C130.292 19.1484 129.706 18.3024 128.994 17.6695C128.267 17.0172 127.418 16.6104 126.478 16.4554C125.54 16.3036 124.548 16.4392 123.53 16.8622C122.538 17.2756 121.62 17.9214 120.8 18.7835C119.996 19.6296 119.31 20.6241 118.758 21.7349C118.21 22.8425 117.792 24.0631 117.521 25.3644C117.247 26.6722 117.157 28.0155 117.256 29.3491C117.355 30.6956 117.623 31.9001 118.054 32.9269C118.494 33.9796 119.074 34.8321 119.779 35.465C120.503 36.1108 121.345 36.5144 122.28 36.663C122.513 36.6985 122.752 36.7178 122.991 36.7178C123.709 36.7178 124.449 36.5532 125.205 36.2238C126.194 35.7943 127.106 35.1388 127.922 34.2799C128.723 33.4339 129.415 32.4361 129.98 31.3091C130.538 30.1951 130.962 28.9681 131.243 27.67C131.524 26.3654 131.623 25.035 131.54 23.7143H131.543ZM127.862 26.9983C127.709 27.7862 127.47 28.5289 127.151 29.2038C126.835 29.8754 126.449 30.476 126.002 30.9862C125.575 31.4771 125.109 31.8419 124.631 32.0647C124.152 32.2714 123.715 32.336 123.294 32.2617C122.867 32.1842 122.487 31.9969 122.14 31.6837C121.776 31.3576 121.466 30.912 121.218 30.3566C120.963 29.7882 120.806 29.1231 120.752 28.3771C120.695 27.5989 120.742 26.8143 120.899 26.0393C121.052 25.2611 121.288 24.5248 121.604 23.8467C121.913 23.1815 122.293 22.5874 122.739 22.0869C123.17 21.6025 123.635 21.2409 124.114 21.0181C124.583 20.8146 125.017 20.7501 125.447 20.8275C125.881 20.9018 126.264 21.0891 126.611 21.3926C126.972 21.7091 127.281 22.1482 127.527 22.7036C127.782 23.272 127.938 23.9372 127.993 24.6928C128.06 25.4451 128.015 26.2233 127.865 27.0015L127.862 26.9983Z" fill="#6EB24F"/>
<path d="M47.5383 32.7074C47.4554 31.3867 47.1875 30.1984 46.7409 29.178C46.288 28.1414 45.6979 27.2954 44.9898 26.6625C44.2625 26.0103 43.4141 25.6034 42.4731 25.4484C41.5353 25.2966 40.5433 25.4322 39.5226 25.8553C38.5306 26.2686 37.612 26.9176 36.7922 27.7766C35.9884 28.6226 35.3026 29.6171 34.7508 30.7279C34.2022 31.8323 33.7875 33.0561 33.5132 34.3574C33.2389 35.6684 33.1496 37.0085 33.2485 38.3421C33.3474 39.6854 33.6153 40.8899 34.0459 41.9199C34.4861 42.9726 35.0666 43.8251 35.7715 44.458C36.4956 45.1038 37.3345 45.5074 38.2723 45.656C38.5051 45.6915 38.7443 45.7109 38.9836 45.7109C39.7012 45.7109 40.4444 45.5462 41.1972 45.2168C42.1828 44.7874 43.0983 44.1318 43.9148 43.2729C44.7155 42.4269 45.4076 41.4291 45.9722 40.3022C46.5304 39.1881 46.9546 37.9611 47.2353 36.663C47.516 35.3584 47.6149 34.0281 47.532 32.7074H47.5383ZM43.8574 35.9913C43.7043 36.7792 43.4651 37.5219 43.1461 38.1968C42.8303 38.8685 42.4444 39.4691 41.9978 39.9793C41.5704 40.4701 41.1047 40.835 40.6263 41.0578C40.1478 41.2644 39.7108 41.3322 39.2898 41.2547C38.8624 41.1772 38.4828 40.99 38.1351 40.6767C37.7715 40.3506 37.4621 39.905 37.2133 39.3496C36.9581 38.7813 36.8018 38.1161 36.7476 37.3702C36.6902 36.592 36.7412 35.8073 36.8911 35.0323C37.0442 34.2541 37.2834 33.5146 37.596 32.8398C37.9054 32.1713 38.285 31.5804 38.7316 31.0799C39.1622 30.5955 39.6279 30.2339 40.1063 30.0111C40.572 29.8077 41.009 29.7463 41.4396 29.8206C41.8734 29.8948 42.2562 30.0821 42.6039 30.3857C42.9643 30.7021 43.2737 31.1413 43.5193 31.6934C43.7745 32.2618 43.9308 32.9269 43.985 33.6825C44.052 34.4349 44.0073 35.2131 43.8574 35.9913Z" fill="#6EB24F"/>
</svg>
